<?xml version="1.0" encoding="UTF-8"?>
<svg width="66px" height="79px" viewBox="0 0 66 79" version="1.1" xmlns="http://www.w3.org/2000/svg" xmlns:xlink="http://www.w3.org/1999/xlink">
    <!-- Generator: Sketch 43.2 (39069) - http://www.bohemiancoding.com/sketch -->
    <title>noun_Lion_436686</title>
    <desc>Created with Sketch.</desc>
    <defs></defs>
    <g id="Page-1" stroke="none" stroke-width="1" fill="none" fill-rule="evenodd">
        <g id="noun_Lion_436686" fill-rule="nonzero" fill="#000000">
            <path d="M54.76782,9.2713 L33.24096,0.46844 L11.71405,9.2713 L0.83484,37.51093 L5.92725,61.58399 L33.24097,78.25 L60.55463,61.58398 L65.64704,37.51092 L54.76782,9.2713 Z M33.24097,13.51038 L46.43488,17.37287 L49.19227,28.27479 C49.185,28.2746 49.17871,28.271 49.17139,28.271 L40.86133,28.271 C40.38184,28.271 39.96973,28.61133 39.8794,29.08204 L37.82252,39.77735 L28.65943,39.77735 L26.60255,29.08204 C26.51222,28.61134 26.10011,28.271 25.62062,28.271 L17.31007,28.271 C17.30293,28.271 17.29683,28.2746 17.28968,28.27472 L20.04707,17.37286 L33.24097,13.51038 Z M16.82147,30.12573 C16.88269,30.16083 16.93915,30.20257 17.00879,30.22461 L25.28858,32.84082 L26.85157,40.96631 C26.85609,40.98975 26.87019,41.00794 26.87623,41.03064 C26.89552,41.1037 26.92115,41.17365 26.95686,41.24127 C26.97578,41.27704 26.99611,41.30987 27.01893,41.34271 C27.03529,41.36633 27.04493,41.39313 27.06349,41.41552 L32.24074,47.65917 L32.24074,50.17089 L21.5058,54.30994 L13.33435,43.91266 L16.82147,30.12573 Z M25.52289,59.42126 L22.79871,55.95507 L33.24073,51.92876 L43.68311,55.95507 L40.95899,59.42126 L25.52289,59.42126 Z M44.97614,54.30988 L34.24073,50.17066 L34.24073,47.65864 L39.41798,41.41554 C39.43617,41.39363 39.44569,41.36732 39.46174,41.34419 C39.4853,41.31056 39.50605,41.27699 39.52546,41.24025 C39.56086,41.17317 39.58619,41.10384 39.60542,41.03145 C39.61152,41.0085 39.62581,40.99001 39.63038,40.96633 L41.19337,32.84084 L49.47267,30.22463 C49.54243,30.20254 49.59913,30.16073 49.66041,30.12557 L53.14753,43.91268 L44.97614,54.30988 Z" id="Shape"></path>
        </g>
    </g>
</svg>