<?xml version="1.0" encoding="UTF-8"?>
<svg width="281px" height="301px" viewBox="0 0 281 301" version="1.1" xmlns="http://www.w3.org/2000/svg" xmlns:xlink="http://www.w3.org/1999/xlink">
    <!-- Generator: Sketch 43.2 (39069) - http://www.bohemiancoding.com/sketch -->
    <title>noun_climber_1880127</title>
    <desc>Created with Sketch.</desc>
    <defs></defs>
    <g id="Page-1" stroke="none" stroke-width="1" fill="none" fill-rule="evenodd">
        <g id="noun_climber_1880127" fill="#000000">
            <path d="M122,7 C135,7 146,19 146,33 C146,47 135,58 122,58 C109,58 98,47 98,33 C98,19 109,7 122,7 Z M281,149 L281,301 L0,301 L32,267 L56,259 C49,257 43,251 47,243 L98,143 L96,90 L51,68 L38,15 C36,7 53,2 55,12 L66,53 L95,65 L148,63 L180,40 L206,4 C212,-5 226,5 221,12 L194,54 L152,91 L147,139 L197,149 L203,165 L175,226 C172,231 167,232 163,231 L176,240 L281,149 Z M68,255 L76,252 L124,207 L154,226 C153,224 153,222 154,219 L172,169 L120,166 L68,255 Z" id="Shape"></path>
        </g>
    </g>
</svg>