<?xml version="1.0" encoding="UTF-8"?>
<svg width="96px" height="96px" viewBox="0 0 96 96" version="1.1" xmlns="http://www.w3.org/2000/svg" xmlns:xlink="http://www.w3.org/1999/xlink">
    <title>noun_Rocket_2217227</title>
    <g id="Page-1" stroke="none" stroke-width="1" fill="none" fill-rule="evenodd">
        <g id="noun_Rocket_2217227" fill="#000000" fill-rule="nonzero">
            <g id="Group">
                <path d="M16.1,81.8 C15.1,81.8 14.2,81 14.2,79.9 C14.2,78.1 14.4,75 15,71.5 L9.6,66 C1.7,75.3 0.8,88.6 0.7,93.4 C0.7,94.4 1.5,95.3 2.6,95.3 C7.4,95.2 20.7,94.3 30,86.4 L24.5,81 C21,81.6 17.9,81.7 16.1,81.8 Z" id="Path"></path>
                <path d="M74.5,61 L74.3,60.5 C96.7,36.8 96.3,12.3 95.3,4 C95.1,2.2 93.7,0.8 91.9,0.6 C83.6,-0.4 59.1,-0.8 35.4,21.6 L35,21.5 C27.2,17.9 18.1,19.6 12,25.6 L3.3,34.3 C1.3,36.3 1.9,39.6 4.4,40.7 L18.5,47.2 L13.7,54.8 C12.6,56.6 12.8,59 14.4,60.6 L35.4,81.6 C36.9,83.1 39.3,83.4 41.2,82.3 L48.8,77.5 L55.3,91.6 C56.5,94.1 59.8,94.7 61.7,92.7 L70.4,84 C76.5,77.9 78.1,68.7 74.5,61 Z M54.6,41.4 C50.4,37.2 50.4,30.5 54.6,26.3 C58.8,22.1 65.5,22.1 69.7,26.3 C73.9,30.5 73.8,37.2 69.7,41.4 C65.6,45.5 58.8,45.5 54.6,41.4 Z" id="Shape"></path>
            </g>
        </g>
    </g>
</svg>