<?xml version="1.0" encoding="UTF-8"?>
<svg width="86px" height="90px" viewBox="0 0 86 90" version="1.1" xmlns="http://www.w3.org/2000/svg" xmlns:xlink="http://www.w3.org/1999/xlink">
    <!-- Generator: Sketch 43.2 (39069) - http://www.bohemiancoding.com/sketch -->
    <title>Group</title>
    <desc>Created with Sketch.</desc>
    <defs></defs>
    <g id="Page-1" stroke="none" stroke-width="1" fill="none" fill-rule="evenodd">
        <g id="dip-copy" fill-rule="nonzero" fill="#000000">
            <g id="Group">
                <path d="M64.738,89.995 C64.708,89.994 64.678,89.994 64.647,89.992 C64.677,89.993 64.707,89.994 64.738,89.995 Z" id="Shape"></path>
                <path d="M20.068,25.372 C19.829,25.611 19.581,25.864 19.335,26.111 C19.926,25.548 20.53,25.021 21.146,24.525 C20.785,24.797 20.425,25.075 20.068,25.372 Z" id="Shape"></path>
                <path d="M64.04,17.853 C64.245,17.667 64.436,17.468 64.626,17.268 C62.839,18.921 60.45,19.921 57.838,19.921 C60.283,19.92 62.351,19.17 64.04,17.853 Z" id="Shape"></path>
                <path d="M65.329,38.413 C65.243,38.42 65.157,38.424 65.072,38.43 C65.158,38.424 65.244,38.42 65.329,38.413 Z" id="Shape"></path>
                <path d="M61.214,38.376 C61.003,38.356 60.792,38.339 60.58,38.314 C60.791,38.339 61.002,38.357 61.214,38.376 Z" id="Shape"></path>
                <path d="M68.362,27.625 C68.338,27.649 68.316,27.663 68.292,27.681 C68.63,27.551 68.964,27.401 69.296,27.241 C68.986,27.385 68.674,27.514 68.362,27.625 Z" id="Shape"></path>
                <path d="M66.767,38.251 C66.736,38.256 66.704,38.261 66.673,38.265 C66.704,38.261 66.736,38.256 66.767,38.251 Z" id="Shape"></path>
                <path d="M54.835,25.935 C54.646,25.747 54.269,25.56 54.08,25.56 C54.309,25.695 54.535,25.809 54.763,25.935 L54.835,25.935 Z" id="Shape"></path>
                <path d="M76.421,34.525 C76.347,34.574 76.271,34.619 76.197,34.667 C76.272,34.619 76.347,34.573 76.421,34.525 Z" id="Shape"></path>
                <path d="M15.886,29.977 C16.092,29.708 16.301,29.446 16.511,29.186 C16.299,29.445 16.092,29.709 15.886,29.977 Z" id="Shape"></path>
                <path d="M65.258,89.986 C65.245,89.987 65.232,89.987 65.218,89.988 C65.231,89.988 65.244,89.987 65.258,89.986 Z" id="Shape"></path>
                <path d="M68.362,88.888 C68.47,88.78 68.564,88.66 68.661,88.543 C67.971,89.172 67.109,89.623 66.189,89.844 C66.965,89.666 67.711,89.34 68.362,88.888 Z" id="Shape"></path>
                <path d="M50.136,57.318 C49.779,57.08 49.399,56.842 49.011,56.604 C49.385,56.836 49.76,57.076 50.135,57.319 L50.136,57.318 Z" id="Shape"></path>
                <path d="M57.886,37.847 C57.308,37.715 56.73,37.572 56.15,37.399 C56.73,37.571 57.309,37.717 57.886,37.847 Z" id="Shape"></path>
                <path d="M59.597,38.174 C59.305,38.127 59.012,38.075 58.719,38.017 C59.012,38.074 59.305,38.128 59.597,38.174 Z" id="Shape"></path>
                <path d="M64.264,89.957 C64.203,89.949 64.141,89.944 64.08,89.934 C64.141,89.943 64.203,89.949 64.264,89.957 Z" id="Shape"></path>
                <path d="M65.81,89.923 C65.792,89.926 65.775,89.928 65.757,89.931 C65.775,89.928 65.793,89.926 65.81,89.923 Z" id="Shape"></path>
                <path d="M50.51,23.492 C43.933,19.546 37.358,18.419 31.344,19.546 C31.344,19.574 31.332,19.592 31.325,19.613 C37.361,18.365 43.934,19.602 50.51,23.492 Z" id="Shape"></path>
                <path d="M76.802,20.422 C76.682,20.5 76.562,20.581 76.446,20.671 C76.258,20.86 76.07,21.05 75.883,21.426 C76.163,21.033 76.474,20.704 76.802,20.422 Z" id="Shape"></path>
                <path d="M60.471,87.197 C61.268,88.791 62.527,89.627 63.888,89.895 C62.545,89.619 61.287,88.777 60.471,87.197 Z" id="Shape"></path>
                <path d="M51.457,2.356 C51.328,2.447 51.197,2.536 51.074,2.631 C50.786,2.919 50.517,3.231 50.259,3.552 C50.625,3.122 51.025,2.721 51.457,2.356 Z" id="Shape"></path>
                <path d="M78.887,32.701 C78.983,32.615 79.072,32.522 79.167,32.435 C78.993,32.585 78.822,32.745 78.646,32.89 C78.726,32.824 78.807,32.766 78.887,32.701 Z" id="Shape"></path>
                <path d="M78.126,33.296 C77.866,33.5 77.602,33.695 77.338,33.887 C77.603,33.697 77.865,33.498 78.126,33.296 Z" id="Shape"></path>
                <path d="M69.43,27.178 C69.663,27.063 69.895,26.947 70.124,26.817 C69.894,26.944 69.662,27.068 69.43,27.178 Z" id="Shape"></path>
                <path d="M76.802,20.422 C76.474,20.704 76.163,21.033 75.883,21.426 C74.124,23.866 72.191,25.643 70.125,26.817 C69.896,26.947 69.663,27.063 69.431,27.178 C69.387,27.2 69.342,27.22 69.298,27.242 C68.966,27.402 68.632,27.552 68.294,27.682 C64.162,29.265 59.566,28.594 54.765,25.936 C54.537,25.81 54.311,25.696 54.082,25.561 C53.519,25.185 51.075,23.68 50.512,23.492 C43.936,19.603 37.362,18.366 31.327,19.613 C27.7,20.362 24.268,22.011 21.148,24.525 C20.532,25.021 19.928,25.548 19.337,26.111 C18.358,27.044 17.416,28.071 16.513,29.187 C16.303,29.447 16.093,29.708 15.888,29.978 C15.586,30.374 15.287,30.779 14.995,31.196 C11.238,36.459 20.07,41.533 23.642,36.273 C28.337,29.695 34.165,27.815 40.556,29.882 C37.361,35.708 34.354,41.344 30.406,49.239 C26.27,57.319 17.44,63.708 8.792,58.821 C2.594,55.064 -2.857,64.084 3.157,67.655 C14.994,74.419 28.714,70.286 35.666,61.453 C35.854,61.453 36.229,61.639 36.417,61.639 C42.243,63.708 49.761,68.968 52.017,70.851 C54.27,72.728 58.216,82.313 60.473,87.197 C61.288,88.777 62.547,89.619 63.89,89.895 C63.954,89.908 64.017,89.923 64.081,89.934 C64.142,89.944 64.204,89.949 64.265,89.957 C64.392,89.973 64.52,89.985 64.648,89.992 C64.678,89.994 64.708,89.994 64.739,89.995 C64.899,90 65.059,89.998 65.219,89.989 C65.232,89.988 65.245,89.988 65.259,89.987 C65.426,89.976 65.593,89.958 65.759,89.931 C65.777,89.928 65.795,89.926 65.812,89.923 C65.94,89.901 66.066,89.874 66.191,89.844 C67.111,89.623 67.973,89.172 68.663,88.543 C70.086,87.247 70.773,85.204 69.682,82.875 C67.049,77.426 62.54,66.526 59.158,63.708 C57.094,62.193 53.619,59.574 50.136,57.32 C49.761,57.077 49.386,56.837 49.012,56.605 C48.116,56.048 47.23,55.526 46.377,55.064 C49.572,49.05 52.768,43.226 56.15,37.4 C56.73,37.573 57.309,37.716 57.886,37.848 C58.164,37.912 58.441,37.964 58.719,38.018 C59.012,38.075 59.305,38.128 59.597,38.175 C59.925,38.228 60.253,38.276 60.58,38.315 C60.792,38.341 61.003,38.357 61.214,38.377 C62.514,38.5 63.801,38.517 65.072,38.431 C65.158,38.425 65.244,38.421 65.329,38.414 C65.779,38.378 66.227,38.329 66.673,38.267 C66.704,38.263 66.736,38.257 66.767,38.253 C70.076,37.778 73.248,36.579 76.197,34.668 C76.271,34.62 76.347,34.575 76.421,34.526 C76.729,34.322 77.034,34.108 77.338,33.888 C77.603,33.696 77.866,33.501 78.126,33.297 C78.299,33.161 78.474,33.031 78.646,32.89 C78.822,32.745 78.993,32.585 79.167,32.435 C81.082,30.783 82.883,28.816 84.526,26.499 C88.002,21.631 80.866,16.929 76.802,20.422 Z" id="Shape"></path>
                <path d="M57.838,19.92 C60.45,19.92 62.839,18.921 64.626,17.267 C66.569,15.469 67.8,12.897 67.8,9.96 C67.8,4.512 63.289,0.002 57.838,0.002 C55.421,0.002 53.193,0.893 51.457,2.356 C51.025,2.721 50.624,3.121 50.258,3.553 C48.782,5.293 47.882,7.532 47.882,9.961 C47.882,15.6 52.39,19.92 57.838,19.92 Z" id="Shape"></path>
            </g>
        </g>
    </g>
</svg>