<?xml version="1.0" encoding="UTF-8"?>
<svg width="82px" height="96px" viewBox="0 0 82 96" version="1.1" xmlns="http://www.w3.org/2000/svg" xmlns:xlink="http://www.w3.org/1999/xlink">
    <title>leaps</title>
    <g id="Page-1" stroke="none" stroke-width="1" fill="none" fill-rule="evenodd">
        <g id="leaps" fill="#000000" fill-rule="nonzero">
            <g id="Group">
                <path d="M35.8,17.7 C26,17.7 18,25.7 18,35.5 C18,45.3 26,53.3 35.8,53.3 C45.6,53.3 53.6,45.3 53.6,35.5 C53.6,25.7 45.7,17.7 35.8,17.7 Z M43.3,38.2 L35.9,38.2 C34.4,38.2 33.2,37 33.2,35.5 L33.2,26.4 C33.2,24.9 34.4,23.7 35.9,23.7 C37.4,23.7 38.6,24.9 38.6,26.4 L38.6,32.9 L43.4,32.9 C44.9,32.9 46.1,34.1 46.1,35.6 C45.9,37 44.7,38.2 43.3,38.2 Z" id="Shape"></path>
                <path d="M80.8,49.1 L71.8,35.4 C71.3,34.6 71.1,33.7 71,32.7 C69.4,14.7 54.3,0.5 35.9,0.5 C16.4,0.5 0.6,16.3 0.6,35.8 C0.6,47.4 6.2,58.7 14.8,66.1 C15.8,67 16.5,68.2 16.5,69.6 L16.5,89.8 C16.5,91.4 17.7,92.7 19.3,92.9 L49.6,95.6 C51.4,95.8 52.9,94.3 52.9,92.5 L52.9,78.1 C52.9,77.2 53.7,76.4 54.6,76.4 L65.2,76.4 C68.5,76.4 71.1,73.8 71.1,70.5 L71.1,56.3 C71.1,55.7 71.6,55.1 72.3,55.1 L77.5,55.1 C80.6,55.2 82.5,51.7 80.8,49.1 Z M35.8,58.7 C23,58.7 12.7,48.3 12.7,35.6 C12.7,22.9 23.1,12.5 35.8,12.5 C48.5,12.5 59,22.8 59,35.6 C59,48.4 48.6,58.7 35.8,58.7 Z" id="Shape"></path>
            </g>
        </g>
    </g>
</svg>