<?xml version="1.0" encoding="UTF-8"?>
<svg width="96px" height="86px" viewBox="0 0 96 86" version="1.1" xmlns="http://www.w3.org/2000/svg" xmlns:xlink="http://www.w3.org/1999/xlink">
    <title>noun_contract_2041205</title>
    <g id="Page-1" stroke="none" stroke-width="1" fill="none" fill-rule="evenodd">
        <g id="noun_contract_2041205" fill="#000000" fill-rule="nonzero">
            <g id="Group">
                <path d="M71.5,54.1 L71.5,7.1 C71.5,3.2 68.3,1.77635684e-15 64.4,1.77635684e-15 L7.6,1.77635684e-15 C3.7,1.77635684e-15 0.5,3.2 0.5,7.1 L0.5,77.2 C0.5,81.1 3.7,84.3 7.6,84.3 L49.5,84.3 C49.5,83.9 49.5,83.5 49.6,83.1 L50.2,80.5 C51.2,76.3 53.2,72.4 56.3,69.4 L71.5,54.1 Z M44.1,33.8 L46,31.5 C46.2,31.3 46.5,31.3 46.7,31.5 C47.4,32.1 48.2,32.6 49,32.9 C50,33.3 50.9,33.5 51.8,33.5 C52.6,33.5 53.2,33.3 53.7,33 C54.2,32.6 54.4,32.2 54.4,31.6 C54.4,31.4 54.4,31.2 54.3,31 C54.3,30.8 54.2,30.6 54,30.5 C53.9,30.3 53.7,30.2 53.5,30.1 C53.3,30 53.1,29.8 52.8,29.7 C52.5,29.6 52.3,29.4 51.9,29.3 C51.6,29.2 51.2,29 50.8,28.9 C50.4,28.8 50.1,28.7 49.8,28.6 C49.5,28.5 49.2,28.4 48.8,28.3 C48.5,28.2 48.1,28 47.9,27.9 C47.6,27.8 47.4,27.6 47.1,27.5 C46.8,27.3 46.5,27.2 46.3,27 C46.1,26.8 45.9,26.6 45.6,26.4 C45.4,26.2 45.2,26 45.1,25.7 C44.9,25.4 44.8,25.2 44.7,24.9 C44.6,24.6 44.5,24.3 44.4,24 C44.4,23.7 44.3,23.3 44.3,22.9 C44.3,21.3 44.8,20 45.8,18.9 C46.8,17.8 48.2,17.2 50,17 L50,14.5 C50,14.2 50.2,14 50.5,14 L52.8,14 C53.1,14 53.3,14.2 53.3,14.5 L53.3,17 C54.3,17.2 55.2,17.5 56.1,17.9 C56.9,18.3 57.5,18.7 58.1,19.1 C58.3,19.3 58.3,19.6 58.2,19.8 L56.4,22.1 C56.2,22.3 56,22.3 55.8,22.2 C54.3,21.2 52.8,20.7 51.4,20.7 C50.6,20.7 50,20.9 49.6,21.2 C49.2,21.5 49,21.9 49,22.5 C49,23 49.3,23.5 49.7,23.8 C50.2,24.1 51,24.5 52.2,24.9 C52.7,25.1 53.2,25.2 53.5,25.3 C53.8,25.4 54.3,25.6 54.7,25.7 C55.1,25.9 55.5,26 55.8,26.2 C56.1,26.4 56.4,26.5 56.7,26.7 C57,26.9 57.3,27.1 57.5,27.3 C57.7,27.5 57.9,27.8 58.1,28 C58.3,28.3 58.5,28.6 58.6,28.9 C58.7,29.2 58.8,29.5 58.9,29.9 C59,30.3 59,30.7 59,31.2 C59,32.8 58.5,34.2 57.5,35.2 C56.5,36.3 55.1,36.9 53.3,37.2 L53.3,39.4 C53.3,39.7 53.1,39.9 52.8,39.9 L50.5,39.9 C50.2,39.9 50,39.7 50,39.4 L50,37.1 C47.8,36.8 45.8,35.8 44.2,34.3 C43.9,34.2 43.9,33.9 44.1,33.8 Z M15.3,16.5 L34.9,16.5 C36.3,16.5 37.4,17.6 37.4,19 C37.4,20.4 36.3,21.5 34.9,21.5 L15.3,21.5 C13.9,21.5 12.8,20.4 12.8,19 C12.8,17.7 13.9,16.5 15.3,16.5 Z M15.3,32 L34.9,32 C36.3,32 37.4,33.1 37.4,34.5 C37.4,35.9 36.3,37 34.9,37 L15.3,37 C13.9,37 12.8,35.9 12.8,34.5 C12.8,33.1 13.9,32 15.3,32 Z M42.4,68 L15.3,68 C13.9,68 12.8,66.9 12.8,65.5 C12.8,64.1 13.9,63 15.3,63 L42.4,63 C43.8,63 44.9,64.1 44.9,65.5 C44.9,66.8 43.8,68 42.4,68 Z M15.3,52.5 C13.9,52.5 12.8,51.4 12.8,50 C12.8,48.6 13.9,47.5 15.3,47.5 L56.7,47.5 C58.1,47.5 59.2,48.6 59.2,50 C59.2,51.4 58.1,52.5 56.7,52.5 L15.3,52.5 Z" id="Shape"></path>
                <rect id="Rectangle" transform="translate(73.698125, 64.977000) rotate(-45.004051) translate(-73.698125, -64.977000) " x="59.7472723" y="59.1766455" width="27.9017053" height="11.600709"></rect>
                <path d="M94.8,49 L89.7,44 C88.8,43.1 87.5,43.1 86.7,43.8 L82,48.5 L90.2,56.7 L95,52 C95.7,51.2 95.7,49.9 94.8,49 Z" id="Path"></path>
                <path d="M53.5,81.3 L52.9,83.9 C52.7,85 53.7,86.1 54.8,85.8 L57.4,85.2 C60.3,84.5 63,83.3 65.2,81.4 L57.2,73.4 C55.4,75.8 54.1,78.4 53.5,81.3 Z" id="Path"></path>
            </g>
        </g>
    </g>
</svg>