<?xml version="1.0" encoding="UTF-8"?>
<svg width="90px" height="90px" viewBox="0 0 90 90" version="1.1" xmlns="http://www.w3.org/2000/svg" xmlns:xlink="http://www.w3.org/1999/xlink">
    <!-- Generator: Sketch 43.2 (39069) - http://www.bohemiancoding.com/sketch -->
    <title>noun_Income_2443685</title>
    <desc>Created with Sketch.</desc>
    <defs></defs>
    <g id="Page-1" stroke="none" stroke-width="1" fill="none" fill-rule="evenodd">
        <g id="noun_Income_2443685" fill-rule="nonzero" fill="#000000">
            <path d="M63,36 C48.0883118,36 36,48.0883118 36,63 C36,77.9116882 48.0883118,90 63,90 C77.9116882,90 90,77.9116882 90,63 C89.9830432,48.0953411 77.9046589,36.0169568 63,36 L63,36 Z M63.74689,60.77368 C71.86169,63.49524 73.56525,67.58044 73.56525,70.52783 C73.56525,74.93604 70.16113,78.39874 65.34784,79.23615 L65.34784,82.95654 L60.65216,82.95654 L60.65216,79.18 C55.95087,78.21046 52.43475,74.48664 52.43475,70.04292 L57.13043,70.04292 C57.13043,72.58792 59.84912,74.73799 63.06708,74.73799 C65.95026,74.73799 68.86957,73.29182 68.86957,70.52784 C68.86957,67.74494 64.24268,65.89241 62.25311,65.22517 C54.13831,62.50361 52.43475,58.41841 52.43475,55.47102 C52.43475,51.06282 55.83887,47.60017 60.65216,46.76271 L60.65216,43.04346 L65.34784,43.04346 L65.34784,46.81885 C70.04913,47.7887 73.56525,51.51285 73.56525,55.95654 L68.86957,55.95654 C68.86957,53.41095 66.15088,51.26086 62.93292,51.26086 C60.04974,51.26086 57.13043,52.70703 57.13043,55.47101 C57.13043,58.25391 61.75732,60.10651 63.74689,60.77368 Z" id="Shape"></path>
            <path d="M26.61176,33.14941 C41.30902,33.14941 53.22351,26.95752 53.22351,19.31941 L53.22351,13.83008 C53.22351,6.19189 41.309,0 26.61176,0 C11.91452,0 0,6.19189 0,13.83008 L0,19.31946 C0,26.95752 11.91449,33.14941 26.61176,33.14941 Z" id="Shape"></path>
            <path d="M26.61,47.36 C30.0689265,47.3724462 33.5190331,47.0103359 36.9,46.28 C40.7376145,40.3140897 46.4941454,35.8344646 53.22,33.58008 L53.22,28.39 C48.05,33.71 38.3,37.15 26.61,37.15 C14.93,37.15 5.18,33.71 0,28.39 L0,33.53 C0,41.16992 11.91,47.36 26.61,47.36 Z" id="Shape"></path>
            <path d="M26.61,61.57007 C28.4272312,61.5713865 30.243208,61.4745789 32.05,61.28007 C32.2450931,57.6732189 33.0744491,54.1289916 34.5,50.81007 C31.8864437,51.1809612 29.2497375,51.3647386 26.61,51.36 C14.93,51.36 5.18,47.91992 0,42.6 L0,47.74 C0,55.38 11.91,61.57007 26.61,61.57007 Z" id="Shape"></path>
            <path d="M26.61,75.79 C29.2489608,75.7927298 31.883951,75.5853681 34.49,75.16988 C33.1468824,72.0397184 32.3357339,68.7072971 32.09,65.31002 C30.32,65.47994 28.49,65.57002 26.61,65.57002 C14.93,65.57002 5.18,62.13996 -3.55271368e-15,56.81002 L-3.55271368e-15,61.96 C0,69.6 11.91,75.79 26.61,75.79 Z" id="Shape"></path>
            <path d="M26.61,90 C32.3268589,90.0755263 38.0033349,89.0326071 43.32,86.92993 C40.5780082,84.6750344 38.2440246,81.9655839 36.42,78.91993 C33.183696,79.5108838 29.8997938,79.8021568 26.61,79.79005 C14.93,79.79 5.18,76.35 0,71.03 L0,76.16989 C0,83.81006 11.91,90 26.61,90 Z" id="Shape"></path>
        </g>
    </g>
</svg>