<?xml version="1.0" encoding="UTF-8"?>
<svg width="28px" height="28px" viewBox="0 0 28 28" version="1.1" xmlns="http://www.w3.org/2000/svg" xmlns:xlink="http://www.w3.org/1999/xlink">
    <!-- Generator: Sketch 43.2 (39069) - http://www.bohemiancoding.com/sketch -->
    <title>noun_report_3476452</title>
    <desc>Created with Sketch.</desc>
    <defs></defs>
    <g id="Page-1" stroke="none" stroke-width="1" fill="none" fill-rule="evenodd">
        <g id="noun_report_3476452" transform="translate(-1.000000, 0.000000)" fill-rule="nonzero" fill="#000000">
            <g id="Group">
                <path d="M15,28 C18.3658813,28.0001813 21.6178634,26.7809545 24.154,24.568 L14.294,14.708 C14.1058387,14.5204263 14.0000563,14.2656851 14,14 L14,0.051 C6.48172035,0.583741539 0.736431836,6.97599919 1.00593383,14.5083103 C1.27543582,22.0406215 7.46287141,28.0059328 15,28 L15,28 Z" id="Shape"></path>
                <path d="M16,0.051 L16,13 L28.949,13 C28.4454761,6.06772918 22.9322708,0.554523861 16,0.051 L16,0.051 Z" id="Shape"></path>
                <path d="M17.414,15 L25.568,23.154 C27.5498295,20.8748143 28.7365284,18.0128377 28.949,15 L17.414,15 Z" id="Shape"></path>
            </g>
        </g>
    </g>
</svg>