<?xml version="1.0" encoding="UTF-8"?>
<svg width="78px" height="96px" viewBox="0 0 78 96" version="1.1" xmlns="http://www.w3.org/2000/svg" xmlns:xlink="http://www.w3.org/1999/xlink">
    <title>Group</title>
    <g id="Page-1" stroke="none" stroke-width="1" fill="none" fill-rule="evenodd">
        <g id="spacs" fill="#000000" fill-rule="nonzero">
            <g id="Group">
                <path d="M39,16.2 C41,16.2 42.7,14.5 42.7,12.5 L42.7,4.2 C42.7,2.1 41,0.5 39,0.5 C37,0.5 35.3,2.2 35.3,4.2 L35.3,12.5 C35.3,14.5 36.9,16.2 39,16.2 Z" id="Path"></path>
                <path d="M21.4,18.2 C22.1,19.4 23.3,20.1 24.6,20.1 C25.2,20.1 25.9,19.9 26.5,19.6 C28.3,18.6 28.9,16.3 27.9,14.5 L23.8,7.3 C22.8,5.5 20.5,4.9 18.7,5.9 C16.9,6.9 16.3,9.2 17.3,11 L21.4,18.2 Z" id="Path"></path>
                <path d="M51.6,19.5 C52.2,19.8 52.8,20 53.5,20 C54.8,20 56,19.3 56.7,18.1 L60.8,10.9 C61.8,9.1 61.2,6.9 59.4,5.8 C57.6,4.8 55.4,5.4 54.3,7.2 L50.2,14.4 C49.2,16.2 49.8,18.5 51.6,19.5 Z" id="Path"></path>
                <circle id="Oval" transform="translate(39.004843, 37.689373) rotate(-89.495647) translate(-39.004843, -37.689373) " cx="39.0048427" cy="37.6893733" r="13.8005347"></circle>
                <path d="M73.1,30 C69.7,28.9 66,30.8 65,34.2 L61.8,44.1 C60.3,48.9 56.7,52.6 52,54.3 C49.8,55.1 47.5,55.5 45.2,55.5 L32.9,55.5 C30.6,55.5 28.3,55.1 26.1,54.3 C21.4,52.6 17.8,48.9 16.3,44.1 L13.1,34.2 C12,30.8 8.4,28.9 5,30 C1.6,31.1 -0.3,34.7 0.8,38.1 L4,48 C6.8,56.6 13.2,63.3 21.7,66.4 C22.7,66.8 23.8,67 24.8,67.2 L24.8,91.7 C24.8,93.7 26.5,95.4 28.5,95.4 L49.6,95.4 C51.6,95.4 53.3,93.7 53.3,91.7 L53.3,67.3 C54.4,67 55.4,66.8 56.5,66.4 C65,63.3 71.4,56.6 74.2,48 L77.4,38.1 C78.4,34.7 76.5,31.1 73.1,30 Z" id="Path"></path>
            </g>
        </g>
    </g>
</svg>