<?xml version="1.0" encoding="UTF-8"?>
<svg width="90px" height="90px" viewBox="0 0 90 90" version="1.1" xmlns="http://www.w3.org/2000/svg" xmlns:xlink="http://www.w3.org/1999/xlink">
    <!-- Generator: Sketch 43.2 (39069) - http://www.bohemiancoding.com/sketch -->
    <title>swing</title>
    <desc>Created with Sketch.</desc>
    <defs></defs>
    <g id="Page-1" stroke="none" stroke-width="1" fill="none" fill-rule="evenodd">
        <g id="swing" fill-rule="nonzero" fill="#000000">
            <g id="Group">
                <path d="M48.772,29.539 C46.892,29.539 45.363,31.068 45.363,32.948 C45.363,34.828 46.892,36.357 48.772,36.357 C50.651,36.357 52.18,34.828 52.18,32.948 C52.18,31.068 50.651,29.539 48.772,29.539 Z" id="Shape"></path>
                <path d="M22.614,40.131 C20.734,40.131 19.205,41.66 19.205,43.539 C19.205,45.418 20.734,46.948 22.614,46.948 C24.493,46.948 26.023,45.419 26.023,43.539 C26.022,41.661 24.493,40.131 22.614,40.131 Z" id="Shape"></path>
                <path d="M38.155,53.643 C36.276,53.643 34.747,55.172 34.747,57.051 C34.747,58.93 36.276,60.46 38.155,60.46 C40.034,60.46 41.564,58.931 41.564,57.051 C41.564,55.173 40.035,53.643 38.155,53.643 Z" id="Shape"></path>
                <path d="M45,0 C20.147,0 0,20.147 0,45 C0,69.853 20.147,90 45,90 C69.853,90 90,69.853 90,45 C90,20.147 69.853,0 45,0 Z M70.972,40.286 C71.569,41.229 71.919,42.343 71.919,43.539 C71.919,46.908 69.178,49.649 65.809,49.649 C62.44,49.649 59.699,46.908 59.699,43.539 C59.699,42.839 59.823,42.169 60.041,41.542 L53.116,37.237 C52.007,38.36 50.47,39.058 48.771,39.058 C48.372,39.058 47.982,39.017 47.604,38.943 L41.787,52.151 C43.286,53.266 44.264,55.044 44.264,57.052 C44.264,60.421 41.523,63.162 38.154,63.162 C34.785,63.162 32.044,60.421 32.044,57.052 C32.044,56.007 32.309,55.023 32.773,54.162 L26.218,48.462 C25.206,49.205 23.962,49.65 22.613,49.65 C21.417,49.65 20.303,49.299 19.36,48.703 L12.305,55.758 C12.041,56.022 11.696,56.154 11.35,56.154 C11.004,56.154 10.659,56.022 10.395,55.758 C9.867,55.231 9.867,54.375 10.395,53.848 L17.45,46.793 C16.854,45.85 16.503,44.736 16.503,43.54 C16.503,40.171 19.244,37.43 22.613,37.43 C25.982,37.43 28.723,40.171 28.723,43.54 C28.723,44.584 28.459,45.567 27.995,46.427 L34.552,52.128 C35.563,51.386 36.807,50.942 38.154,50.942 C38.552,50.942 38.941,50.983 39.318,51.056 L45.135,37.847 C43.637,36.732 42.66,34.954 42.66,32.948 C42.66,29.579 45.401,26.838 48.77,26.838 C52.139,26.838 54.88,29.579 54.88,32.948 C54.88,33.647 54.756,34.315 54.539,34.941 L61.465,39.247 C62.573,38.126 64.11,37.429 65.807,37.429 C67.003,37.429 68.116,37.779 69.059,38.376 L77.691,29.744 C78.219,29.216 79.073,29.216 79.601,29.744 C80.129,30.272 80.129,31.127 79.601,31.654 L70.972,40.286 Z" id="Shape"></path>
                <path d="M68.218,41.131 C68.218,41.131 68.218,41.13 68.217,41.13 C67.6,40.514 66.748,40.132 65.81,40.132 C63.931,40.132 62.401,41.661 62.401,43.54 C62.401,45.419 63.93,46.949 65.81,46.949 C67.689,46.949 69.218,45.42 69.218,43.54 C69.218,42.601 68.836,41.749 68.219,41.132 C68.219,41.131 68.218,41.131 68.218,41.131 Z" id="Shape"></path>
            </g>
        </g>
    </g>
</svg>