<?xml version="1.0" encoding="UTF-8"?>
<svg width="279px" height="361px" viewBox="0 0 279 361" version="1.1" xmlns="http://www.w3.org/2000/svg" xmlns:xlink="http://www.w3.org/1999/xlink">
    <!-- Generator: Sketch 43.2 (39069) - http://www.bohemiancoding.com/sketch -->
    <title>Group</title>
    <desc>Created with Sketch.</desc>
    <defs></defs>
    <g id="Page-1" stroke="none" stroke-width="1" fill="none" fill-rule="evenodd">
        <g id="Group" transform="translate(0.000000, -1.000000)" fill-rule="nonzero" fill="#000000">
            <polyline id="polyline10" points="238.077 339.483 238.077 361.395 245.104 361.395 245.104 346.806 270.679 346.806 270.679 361.395 277.701 361.395 277.701 339.521 238.077 339.483"></polyline>
            <path d="M244.321,332.395 L271.341,332.395 C275.094,331.649 277.885,328.337 278.672,325.133 L236.991,325.133 C237.77,328.338 240.602,331.649 244.321,332.395" id="path12"></path>
            <path d="M216.795,361.409 C220.338,359.907 222.244,357.309 222.974,354.269 L191.457,354.269 L191.477,325.151 L184.412,325.171 L184.412,361.409 L216.795,361.409" id="path16"></path>
            <path d="M131.874,332.297 L156.828,332.297 C160.59,331.204 163.749,328.338 164.519,325.161 L124.879,325.161 L124.879,346.576 L157.323,346.576 L157.323,354.091 L131.874,354.111 C127.886,355.223 124.504,357.901 122.817,361.438 L124.879,361.4 L164.294,361.4 L164.294,339.456 L131.874,339.456 L131.874,332.297" id="path20"></path>
            <path d="M70.271,332.366 L97.282,332.366 C101.04,331.617 103.833,328.308 104.616,325.101 L62.937,325.101 C63.715,328.308 66.549,331.617 70.271,332.366" id="path24"></path>
            <path d="M70.271,346.688 L97.282,346.688 C101.04,345.947 103.833,342.635 104.616,339.426 L62.937,339.426 C63.715,342.636 66.549,345.947 70.271,346.688" id="path26"></path>
            <path d="M70.271,361.405 L97.282,361.405 C101.04,360.658 103.833,357.347 104.616,354.142 L62.937,354.142 C63.715,357.348 66.549,360.658 70.271,361.405" id="path28"></path>
            <path d="M0,325.189 C0.812,328.356 3.554,331.593 7.316,332.404 L18.686,332.404 L19.266,332.633 L19.266,361.324 L26.366,361.324 L26.366,332.633 L27.011,332.404 L38.391,332.404 C42.195,331.424 44.878,328.356 45.676,325.189 L45.676,325.119 L0,325.119 L0,325.189" id="path32"></path>
            <g id="T" transform="translate(12.204000, 0.203000)">
                <path d="M127.146,253.299 L162.622,53.78 C196.437,53.78 207.103,57.488 208.643,72.623 C208.643,72.623 231.327,64.165 242.768,46.987 C198.122,26.299 153.263,25.366 153.263,25.366 L127.087,57.248 L127.146,57.244 L100.97,25.361 C100.97,25.361 56.11,26.295 11.47,46.983 C22.901,64.161 45.594,72.619 45.594,72.619 C47.143,57.483 57.796,53.775 91.384,53.751 L127.146,253.299" id="path35"></path>
                <path d="M127.132,16.157 C163.222,15.881 204.531,21.74 246.819,40.171 C252.471,29.998 253.924,25.502 253.924,25.502 C207.697,7.213 164.406,0.954 127.127,0.797 C89.85,0.954 46.561,7.214 0.34,25.502 C0.34,25.502 2.402,31.04 7.44,40.171 C49.72,21.74 91.036,15.881 127.127,16.157 L127.132,16.157" id="path37"></path>
            </g>
        </g>
    </g>
</svg>