<?xml version="1.0" encoding="UTF-8"?>
<svg width="200px" height="200px" viewBox="0 0 200 200" version="1.1" xmlns="http://www.w3.org/2000/svg" xmlns:xlink="http://www.w3.org/1999/xlink">
    <title>kraken</title>
    <g id="kraken" stroke="none" stroke-width="1" fill="none" fill-rule="evenodd">
        <g transform="translate(55.000000, 64.862855)" fill="#0DA8FF" fill-rule="nonzero" id="_x23_0da8ffff">
            <path d="M42.1562413,0.113114363 C49.9427963,-0.389244023 57.8758725,1.18062593 64.8879583,4.65527144 C75.2072368,9.72071851 83.4333554,18.8887591 87.3266329,29.710396 C89.043024,34.4828006 89.9647063,39.5482477 89.9647063,44.6136948 L89.9647063,63.4521343 C89.9647063,64.2266034 89.984946,65.0010726 89.7965616,65.7546102 C89.3779296,67.6593858 88.0173756,69.3339137 86.2381897,70.1293145 C85.0032253,70.7153993 83.5798766,70.7781941 82.2402542,70.5688781 C79.3726251,70.0455881 77.1329439,67.3454118 77.1120123,64.4359194 C77.0910807,58.5960032 77.1120123,52.756087 77.1120123,46.8952391 C77.1538755,45.2416428 77.1748071,43.4624568 76.2747484,41.9972448 C74.8095364,39.2970685 71.2930277,38.0202409 68.4463302,39.1714789 C66.0391962,40.0296745 64.3018735,42.45774 64.2809419,45.0113952 C64.2600103,50.9559694 64.2809419,56.879612 64.2809419,62.8032547 C64.2809419,63.9126295 64.3437367,65.0429358 64.0088311,66.1104474 C63.4018147,68.2036073 61.664492,69.8990669 59.571332,70.4642201 C56.8292925,71.2177577 53.668621,70.0037249 52.2871354,67.4710014 C51.3452134,65.9429946 51.4080082,64.1010139 51.4289398,62.3846227 C51.4080082,56.5028433 51.4498714,50.6001322 51.4080082,44.7183528 C51.3452134,41.7251341 48.8962163,39.0249577 45.9239292,38.6481889 C43.998222,38.3551465 41.9678569,39.0040261 40.5654397,40.3645801 C39.3095437,41.5576813 38.5769378,43.2740724 38.5769378,45.0113952 L38.5769378,62.1753067 C38.5560062,63.6195871 38.723459,65.1057306 38.1792374,66.4662846 C37.3210418,68.9152817 34.8511131,70.7153993 32.2346631,70.6526045 C29.5554184,70.7991257 26.9599001,68.9571449 26.1017045,66.445353 C25.6202777,65.2103886 25.7249357,63.8707663 25.7249357,62.5730071 C25.7249357,56.6493645 25.7458673,50.7257218 25.7249357,44.8020792 C25.7040041,41.8716552 23.4224598,39.1924105 20.5548307,38.6691205 C17.9383807,38.1039673 15.04982,39.4226581 13.7520608,41.7669972 C13.1869076,42.7507824 12.8938653,43.8810888 12.8938653,44.9904636 L12.8938653,64.2266034 C12.9147969,66.0895158 12.0566013,67.9524281 10.6123209,69.1455293 C8.43543457,71.0503049 4.91892587,71.1549629 2.63738153,69.3967085 C0.983785174,68.2664021 0,66.3197634 0,64.3103298 L0,44.8230108 C0.0209315994,37.4550878 1.88384395,30.1080964 5.40035266,23.6193005 C8.26798178,18.3236059 12.2240541,13.613996 16.9545955,9.8463081 C24.0713394,4.11104986 33.0091323,0.657335949 42.1562413,0.113114363 Z"></path>
        </g>
    </g>
</svg>