<?xml version="1.0" encoding="UTF-8"?>
<svg width="377px" height="213px" viewBox="0 0 377 213" version="1.1" xmlns="http://www.w3.org/2000/svg" xmlns:xlink="http://www.w3.org/1999/xlink">
    <title>baba</title>
    <g id="Page-1" stroke="none" stroke-width="1" fill="none" fill-rule="evenodd">
        <g id="baba" transform="translate(0.867000, 0.482971)" fill-rule="nonzero">
            <g id="g4687" transform="translate(0.000000, 154.418429)" fill="#FF6600">
                <path d="M19.1,56.8 L2.84217094e-14,56.8 L29.4,0 L50.5,0 L78.6,56.8 L57.4,56.8 L53.1,46.6 L23.6,46.6 L19.1,56.8 Z M48,34.2 L38.9,13.5 L29.3,34.2 L48,34.2 Z" id="path4689"></path>
            </g>
            <polygon id="path4691" fill="#FF6600" points="82.933 154.417029 101.233 154.417029 101.233 211.217029 82.933 211.217029"></polygon>
            <path d="M110.533,154.417029 L128.833,154.417029 L128.833,166.017029 L110.533,166.017029 L110.533,154.417029 Z M110.533,171.617029 L128.833,171.617029 L128.833,211.217029 L110.533,211.217029 L110.533,171.617029 Z" id="path4693" fill="#FF6600"></path>
            <g id="g4703" transform="translate(138.024300, 154.372829)" fill="#FF6600">
                <path d="M0.8,2.84217094e-14 L19.1,2.84217094e-14 L19.1,22.9 C21.3,20.7 23.7,19 26.4,17.9 C29.1,16.8 32,16.2 35.2,16.2 C41.4,16.2 46.4,18.2 50.2,22.2 C54,26.2 55.9,31.5 55.9,38 C55.9,44 54,48.8 50.3,52.4 C46.6,56 41.6,57.8 35.4,57.8 C32,57.8 28.9,57.2 26.1,55.9 C23.3,54.7 21,52.8 19,50.4 C19,51.7 19,52.9 18.8,54 C18.7,55.1 18.5,56 18.3,56.8 L0,56.8 C0.2,56.1 0.4,55.1 0.5,54 C0.6,52.9 0.7,51.6 0.7,50.2 L0.7,2.84217094e-14 M37.5,37.2 C37.5,33.7 36.7,31 35,28.9 C33.4,26.9 31.1,25.9 28.3,25.9 C25.3,25.9 23,26.9 21.3,28.8 C19.7,30.7 18.9,33.6 18.9,37.3 C18.9,40.8 19.7,43.5 21.3,45.4 C22.9,47.3 25.2,48.3 28.1,48.3 C31,48.3 33.2,47.3 34.9,45.3 C36.6,43.3 37.5,40.6 37.5,37.2" id="path4705"></path>
            </g>
            <g id="g4707" transform="translate(201.323400, 170.352129)" fill="#FF6600">
                <path d="M34.4,34.5 C32.7,36.8 30.4,38.5 27.6,39.6 C24.8,40.7 21.5,41.3 17.5,41.3 C11.9,41.3 7.5,40.3 4.5,38.3 C1.5,36.3 0,33.5 0,29.8 C0,24.8 2.6,21.2 7.8,19 C13,16.8 21.8,15.6 34.1,15.5 C34.1,15.4 34.1,15.3 34.1,15.1 C34.1,14.9 34.1,14.7 34.1,14.6 C34.1,12.6 33.5,11.1 32.3,10.1 C31.1,9.1 29.3,8.6 26.8,8.6 C24.6,8.6 22.9,9 21.7,9.7 C20.5,10.4 19.8,11.5 19.6,13 L2.7,13 C2.8,8.6 4.9,5.3 8.9,3.2 C13,1.1 19.2,0 27.6,0 C35.6,0 41.6,1.2 45.6,3.8 C49.5,6.3 51.5,10.1 51.5,15.2 L51.5,35.4 C51.5,36.6 51.6,37.7 51.7,38.4 C51.8,39.2 52,39.9 52.3,40.5 L35.3,40.5 C35,39.6 34.7,38.6 34.6,37.6 C34.5,36.6 34.4,35.6 34.4,34.5 M34,23.2 C28.1,23.2 24,23.6 21.9,24.4 C19.8,25.2 18.7,26.5 18.7,28.4 C18.7,29.7 19.2,30.7 20.3,31.5 C21.3,32.2 22.8,32.6 24.7,32.6 C27.8,32.6 30.1,31.9 31.7,30.4 C33.3,29 34,26.8 34,23.8 L34,23.2 Z" id="path4709"></path>
            </g>
            <g id="g4711" transform="translate(260.399000, 154.372829)" fill="#FF6600">
                <path d="M0.8,2.84217094e-14 L19.1,2.84217094e-14 L19.1,22.9 C21.3,20.7 23.7,19 26.4,17.9 C29.1,16.8 32,16.2 35.2,16.2 C41.4,16.2 46.4,18.2 50.2,22.2 C54,26.2 55.9,31.5 55.9,38 C55.9,44 54,48.8 50.3,52.4 C46.6,56 41.6,57.8 35.4,57.8 C32,57.8 28.9,57.2 26.1,55.9 C23.3,54.7 21,52.8 19,50.4 C19,51.7 18.9,52.9 18.8,54 C18.7,55.1 18.5,56 18.3,56.8 L0,56.8 C0.2,56.1 0.4,55.1 0.5,54 C0.6,52.9 0.7,51.6 0.7,50.2 L0.7,2.84217094e-14 M37.5,37.2 C37.5,33.7 36.7,31 35,28.9 C33.4,26.9 31.1,25.9 28.3,25.9 C25.3,25.9 23,26.9 21.4,28.8 C19.8,30.7 19,33.6 19,37.3 C19,40.8 19.8,43.5 21.4,45.4 C23,47.3 25.3,48.3 28.2,48.3 C31,48.3 33.3,47.3 35,45.3 C36.7,43.3 37.5,40.6 37.5,37.2" id="path4713"></path>
            </g>
            <g id="g4715" transform="translate(323.699500, 170.352129)" fill="#FF6600">
                <path d="M34.4,34.5 C32.7,36.8 30.4,38.5 27.6,39.6 C24.8,40.7 21.5,41.3 17.5,41.3 C11.9,41.3 7.5,40.3 4.5,38.3 C1.5,36.3 0,33.5 0,29.8 C0,24.8 2.6,21.2 7.8,19 C13,16.8 21.8,15.6 34.1,15.5 C34.1,15.4 34.1,15.3 34.1,15.1 C34.1,14.9 34.1,14.7 34.1,14.6 C34.1,12.6 33.5,11.1 32.3,10.1 C31.1,9.1 29.3,8.6 26.8,8.6 C24.6,8.6 22.9,9 21.7,9.7 C20.5,10.4 19.8,11.5 19.6,13 L2.7,13 C2.8,8.6 4.9,5.3 8.9,3.2 C13,1.1 19.2,0 27.6,0 C35.6,0 41.6,1.2 45.6,3.8 C49.5,6.3 51.5,10.1 51.5,15.2 L51.5,35.4 C51.5,36.6 51.6,37.7 51.7,38.4 C51.8,39.2 52,39.9 52.3,40.5 L35.3,40.5 C35,39.6 34.7,38.6 34.6,37.6 C34.5,36.6 34.4,35.6 34.4,34.5 M34,23.2 C28.1,23.2 24.1,23.6 21.9,24.4 C19.8,25.2 18.7,26.5 18.7,28.4 C18.7,29.7 19.2,30.7 20.3,31.5 C21.3,32.2 22.8,32.6 24.7,32.6 C27.8,32.6 30.1,31.9 31.7,30.4 C33.3,29 34,26.8 34,23.8 L34,23.2 Z" id="path4717"></path>
            </g>
            <g id="g4739" transform="translate(101.144828, 7.827229)" fill="#000000">
                <path d="M7.49587214,102.8 C6.49587214,102.7 4.89587214,101.8 3.79587214,100.9 C-6.90412786,90.4 6.79587214,78.3 22.7958721,71.3 L22.7958721,51.3 C26.4958721,53.7 28.5958721,53.8 28.6958721,54.1 L40.8958721,42 L36.7958721,31.6 C72.4958721,19.3 86.7958721,14.6 115.795872,9.7 L110.595872,4.8 L119.095872,0 C138.595872,6.4 156.995872,8.1 153.795872,24.5 C154.595872,13.4 140.795872,9.2 119.795872,3.3 L115.695872,5.8 L123.495872,12.2 C88.7958721,18.2 67.3958721,25 41.9958721,33.8 L45.4958721,42.8 L32.6958721,55.5 C34.7958721,56.1 57.0958721,63.5 80.1958721,47.4 C80.1958721,47.4 80.6958721,47.1 80.6958721,46.9 C79.9958721,45.8 78.3958721,44.5 76.4958721,42.8 C83.2958721,43.3 87.6958721,49.2 86.8958721,55.4 L83.6958721,55.4 C83.8958721,53.4 83.4958721,51.2 82.7958721,49.8 C64.8958721,62.9 44.0958721,64.8 26.3958721,58.6 L26.3958721,74.1 C17.7958721,77.1 2.49587214,86.6 2.59587214,95.8 C3.19587214,100.1 5.39587214,101.7 7.49587214,102.8" id="path4741"></path>
            </g>
            <g id="g4743" transform="translate(81.318104, -0.000000)" fill="#FF6600">
                <path d="M100.535096,105.503829 C81.3350963,115.203829 62.9350963,123.003829 34.6350963,124.103829 C-2.26490366,123.303829 -7.96490366,98.803829 9.43509634,73.203829 C25.9350963,47.403829 52.1350963,24.003829 93.7350963,9.40382905 C105.835096,5.10382905 123.535096,0.303829047 140.635096,0.00382904674 C165.235096,-0.196170953 189.135096,7.40382905 187.535096,31.003829 C186.635096,49.103829 160.535096,74.503829 146.835096,92.803829 C140.935096,100.803829 139.935096,106.003829 150.035096,105.503829 C186.535096,103.103829 219.535096,90.503829 250.235096,77.403829 C229.435096,91.503829 122.135096,144.603829 121.735096,108.403829 C121.835096,103.803829 123.935096,98.903829 127.435096,93.703829 C130.835096,88.503829 135.535096,83.103829 140.435096,77.603829 C147.735096,69.303829 165.935096,49.303829 172.035096,37.303829 C182.335096,14.903829 159.335096,13.803829 139.435096,6.80382905 L130.935096,11.603829 L136.135096,16.503829 C107.135096,21.303829 92.8350963,26.103829 57.1350963,38.403829 L61.2350963,48.803829 L49.1350963,60.803829 C48.8350963,60.503829 47.0350963,60.403829 43.2350963,58.003829 L43.2350963,78.003829 C27.3350963,85.003829 13.5350963,97.103829 24.2350963,107.603829 C25.3350963,108.503829 26.9350963,109.403829 27.9350963,109.503829 C47.5350963,120.503829 100.635096,105.503829 100.535096,105.503829" id="path4745"></path>
            </g>
            <g id="g4747" transform="translate(295.492600, 114.597279)" fill="#FF6600">
                <path d="M1.1,3.9 L3.6,3.9 C4.1,3.9 4.5,3.8 4.8,3.7 C5.1,3.6 5.3,3.4 5.5,3.2 C5.7,2.9 5.7,2.7 5.7,2.4 C5.7,2 5.5,1.6 5.2,1.4 C4.9,1.1 4.4,1 3.8,1 L1.1,1 L1.1,3.9 Z M0,8.9 L0,0 L4,0 C4.8,0 5.4,0.1 5.8,0.2 C6.2,0.4 6.5,0.6 6.8,1.1 C7.1,1.5 7.2,1.9 7.2,2.4 C7.2,3 7,3.6 6.6,4 C6.2,4.4 5.6,4.7 4.7,4.8 C5,4.9 5.3,5.1 5.4,5.2 C5.7,5.5 6.1,5.9 6.4,6.4 L8,8.8 L6.5,8.8 L5.3,7 C5,6.4 4.7,6 4.4,5.7 C4.2,5.4 4,5.2 3.8,5.1 C3.6,5 3.5,4.9 3.3,4.9 C3.2,4.9 3,4.9 2.6,4.9 L1.1,4.9 L1.1,8.9 L0,8.9 Z" id="path4749"></path>
            </g>
            <g id="g4751" transform="translate(290.546600, 110.618429)" fill="#FF6600">
                <path d="M8.5,17 C13.2,17 17,13.2 17,8.5 C17,3.8 13.2,0 8.5,0 C3.8,0 0,3.8 0,8.5 C0,13.2 3.8,17 8.5,17 M1.3,8.5 C1.3,4.5 4.5,1.3 8.5,1.3 C12.5,1.3 15.7,4.5 15.7,8.5 C15.7,12.4 12.5,15.7 8.5,15.7 C4.5,15.7 1.3,12.5 1.3,8.5" id="path4753"></path>
            </g>
        </g>
    </g>
</svg>