<?xml version="1.0" encoding="UTF-8"?>
<svg width="200px" height="25px" viewBox="0 0 200 25" version="1.1" xmlns="http://www.w3.org/2000/svg" xmlns:xlink="http://www.w3.org/1999/xlink">
    <title>dm</title>
    <g id="Page-1" stroke="none" stroke-width="1" fill="none" fill-rule="evenodd">
        <g id="dm" fill="#FF3333" fill-rule="nonzero">
            <path d="M26.8,0.6 L26.8,24.1 C26.8,24.4 27.1,24.7 27.4,24.7 L38.4,24.7 L38.4,11.3 L27.9,0.2 C27.5,-0.2 26.8,0.1 26.8,0.6 L26.8,0.6 Z M39.6,0.6 L39.6,24.7 L51.2,24.7 L51.2,11.3 L40.7,0.2 C40.3,-0.2 39.6,0.1 39.6,0.6 L39.6,0.6 Z M52.4,24.7 L62.6,24.7 C63.1,24.7 63.4,24.1 63,23.7 L52.4,12.6 L52.4,24.7 Z M11.6,0.3 L0.6,0.3 C0.3,0.3 0,0.6 0,0.9 L0,24.1 C0,24.4 0.3,24.7 0.6,24.7 L11.6,24.7 L11.6,0.3 Z M13.4,0.3 C20.1,0.3 25.6,5.8 25.6,12.5 L25.6,12.5 C25.6,19.2 20.1,24.7 13.4,24.7 L12.8,24.7 L12.8,0.3 L13.4,0.3 Z" id="Shape"></path>
            <path d="M134.6,14.7 C134.6,16.1 135.5,17.2 136.9,17.2 C138.3,17.2 139.2,16.1 139.2,14.7 C139.2,13.3 138.3,12.2 136.9,12.2 C135.5,12.2 134.6,13.4 134.6,14.7 L134.6,14.7 Z M134.6,11.2 C135.1,10.3 136.2,9.6 137.8,9.6 C140.4,9.6 142.4,11.8 142.4,14.7 C142.4,17.6 140.4,19.8 137.8,19.8 C136.3,19.8 135.1,19 134.6,18.2 L134.6,24 L131.5,24 L131.5,9.8 L134.6,9.8 L134.6,11.2 Z M158.4,5.4 L154.6,15.3 L150.8,5.4 L147,5.4 L147,19.6 L150.2,19.6 L150.2,10.8 L153.2,19.2 L156,19.2 L158.9,10.8 L158.9,19.6 L162.1,19.6 L162.1,5.4 L158.4,5.4 Z M179.9,17.3 C179.6,17.3 179.1,17.4 178.9,17.4 C178,17.4 177.5,17.2 177.5,15.7 L177.5,12.2 L179.7,12.2 L179.7,9.9 L177.5,9.9 L177.5,7 L174.4,7 L174.4,16.4 C174.4,19.7 176.4,19.9 177.9,19.9 C178.6,19.9 179.1,19.9 179.5,19.8 L179.9,17.3 Z M119.3,17.3 C119,17.3 118.5,17.4 118.3,17.4 C117.4,17.4 116.9,17.2 116.9,15.7 L116.9,12.2 L119.1,12.2 L119.1,9.9 L116.9,9.9 L116.9,7 L113.8,7 L113.8,16.4 C113.8,19.7 115.8,19.9 117.3,19.9 C118,19.9 118.5,19.9 118.9,19.8 L119.3,17.3 Z M99.2,13.9 C97.6,13.4 96.7,13.2 96.7,12.5 C96.7,11.9 97.2,11.6 97.9,11.6 C98.7,11.6 99.1,12 99.1,12.7 L102.2,12.7 C102.1,10.9 100.8,9.6 97.9,9.6 C95.4,9.6 93.7,10.6 93.7,12.6 C93.7,14.4 95,14.9 96.7,15.4 C98.6,16 99.3,16.1 99.3,16.9 C99.3,17.6 98.8,17.8 98,17.8 C97.1,17.8 96.5,17.4 96.4,16.5 L93.3,16.5 C93.4,18.7 95.1,19.9 97.9,19.9 C100.2,19.9 102.3,19.1 102.3,16.8 C102.3,14.8 100.9,14.4 99.2,13.9 L99.2,13.9 Z M192.4,19.6 L195.5,19.6 L195.5,5.4 L192.4,5.4 L192.4,19.6 Z M188,14.7 C188,13.4 187.1,12.2 185.7,12.2 C184.3,12.2 183.4,13.4 183.4,14.7 C183.4,16.1 184.3,17.2 185.7,17.2 C187.1,17.2 188,16.1 188,14.7 L188,14.7 Z M191.1,9.8 L191.1,19.6 L188,19.6 L188,18.2 C187.5,19.1 186.4,19.8 184.9,19.8 C182.3,19.8 180.3,17.6 180.3,14.7 C180.3,11.8 182.3,9.6 184.9,9.6 C186.3,9.6 187.5,10.3 188,11.2 L188,9.8 C188,9.8 191.1,9.8 191.1,9.8 Z M166.3,13.7 L170.4,13.7 C170.4,12.5 169.6,11.8 168.4,11.8 C167.1,11.8 166.3,12.5 166.3,13.7 L166.3,13.7 Z M166.3,15.5 C166.3,16.7 166.8,17.7 168.4,17.7 C169.5,17.7 170,17.2 170.2,16.6 L173.3,16.6 C173,18.5 171.3,20 168.5,20 C165.1,20 163.2,17.7 163.2,14.8 C163.2,11.9 165,9.6 168.3,9.6 C171.5,9.6 173.4,11.7 173.4,14.4 C173.4,14.8 173.4,15 173.3,15.5 L166.3,15.5 L166.3,15.5 Z M127.4,14.7 C127.4,13.3 126.5,12.2 125,12.2 C123.6,12.2 122.7,13.3 122.7,14.7 C122.7,16.1 123.6,17.2 125,17.2 C126.5,17.2 127.4,16.1 127.4,14.7 L127.4,14.7 Z M119.6,14.7 C119.6,11.9 121.7,9.5 125.1,9.5 C128.5,9.5 130.5,11.9 130.5,14.7 C130.5,17.5 128.5,19.9 125.1,19.9 C121.7,19.9 119.6,17.5 119.6,14.7 L119.6,14.7 Z M109.4,14.7 L113.2,19.6 L109.5,19.6 L106.5,15.5 L106.5,19.6 L103.4,19.6 L103.4,5.4 L106.5,5.4 L106.5,14 L109.5,9.8 L113.2,9.8 L109.4,14.7 Z M85.5,13.7 L89.6,13.7 C89.6,12.5 88.8,11.8 87.6,11.8 C86.4,11.8 85.5,12.5 85.5,13.7 L85.5,13.7 Z M85.5,15.5 C85.5,16.7 86,17.7 87.6,17.7 C88.7,17.7 89.2,17.2 89.4,16.6 L92.5,16.6 C92.2,18.5 90.5,20 87.7,20 C84.3,20 82.4,17.7 82.4,14.8 C82.4,11.9 84.2,9.6 87.5,9.6 C90.7,9.6 92.6,11.7 92.6,14.4 C92.6,14.8 92.6,15 92.5,15.5 L85.5,15.5 L85.5,15.5 Z M72.3,8.2 L72.3,16.7 L74.1,16.7 C76.8,16.7 78.3,14.6 78.3,12.4 C78.3,10.2 76.8,8.1 74.1,8.1 L72.3,8.1 L72.3,8.2 Z M74.2,5.4 C78.9,5.4 81.6,8.9 81.6,12.5 C81.6,16.1 78.9,19.6 74.2,19.6 L69,19.6 L69,5.4 L74.2,5.4 Z M199.7,6.9 L199.7,5.7 L199.7,5.7 L199.2,6.9 L199,6.9 L198.5,5.7 L198.5,5.7 L198.5,6.9 L198.3,6.9 L198.3,5.4 L198.7,5.4 L199.1,6.5 L199.5,5.4 L199.9,5.4 L199.9,6.9 L199.7,6.9 Z M197.5,5.6 L197.5,6.9 L197.3,6.9 L197.3,5.6 L196.8,5.6 L196.8,5.4 L198,5.4 L198,5.6 L197.5,5.6 L197.5,5.6 Z" id="Shape"></path>
        </g>
    </g>
</svg>