<?xml version="1.0" encoding="UTF-8"?>
<svg width="78px" height="24px" viewBox="0 0 78 24" version="1.1" xmlns="http://www.w3.org/2000/svg" xmlns:xlink="http://www.w3.org/1999/xlink">
    <title>gpro</title>
    <g id="Page-1" stroke="none" stroke-width="1" fill="none" fill-rule="evenodd">
        <g id="gpro" fill-rule="nonzero">
            <g id="Group" fill="#000000">
                <path d="M28,8.9 L23.9,8.9 C22,8.9 21.1,8.6 21.1,7.9 L21.1,4.7 C21.1,4.1 22,3.7 23.9,3.7 L28,3.7 C29.9,3.7 30.8,4 30.8,4.7 L30.8,7.9 C30.8,8.6 29.9,8.9 28,8.9 M28,10.4 C31.4,10.4 33.1,9.5 33.1,7.8 L33.1,4.8 C33.1,3 31.4,2.2 28,2.2 L23.9,2.2 C20.5,2.2 18.8,3.1 18.8,4.8 L18.8,7.8 C18.8,9.6 20.5,10.4 23.9,10.4 L28,10.4 Z" id="Shape"></path>
                <path d="M72,8.9 L67.9,8.9 C66,8.9 65.1,8.6 65.1,7.9 L65.1,4.7 C65.1,4.1 66,3.7 67.9,3.7 L72,3.7 C73.9,3.7 74.8,4 74.8,4.7 L74.8,7.9 C74.8,8.6 73.9,8.9 72,8.9 M72,10.4 C75.4,10.4 77.1,9.5 77.1,7.8 L77.1,4.8 C77.1,3 75.4,2.2 72,2.2 L67.9,2.2 C64.5,2.2 62.8,3.1 62.8,4.8 L62.8,7.8 C62.8,9.6 64.5,10.4 67.9,10.4 L72,10.4 Z" id="Shape"></path>
                <path d="M16.5,7.8 L16.5,5.7 C16.5,5.3 16.2,5.1 15.6,5.1 L10.6,5.1 C10.1,5.1 9.8,5.5 9.8,5.9 C9.8,6.3 10.2,6.7 10.6,6.7 L14,6.7 L14,7.8 C14,8.1 13.6,8.5 12.8,8.6 C12.2,8.8 11.7,8.8 11.2,8.8 L5.7,8.8 C3.5,8.8 2.4,8.4 2.4,7.7 L2.4,2.6 C2.4,1.9 3.7,1.6 6.3,1.6 L7.8,1.6 C8.4,1.6 8.7,1.3 8.7,0.8 C8.8,0.3 8.5,0 7.9,0 L5.7,0 C4.4,0 3.2,0.1 2.1,0.5 C0.8,0.9 0,1.6 0,2.6 L0,7.8 C0,8.8 0.7,9.5 2,9.9 C3,10.2 4.2,10.4 5.7,10.4 L11.2,10.4 C12.5,10.4 13.7,10.2 14.6,9.9 C15.8,9.4 16.5,8.7 16.5,7.8" id="Path"></path>
                <path d="M49.8,4.1 C49.8,4.9 48.7,5.2 46.6,5.2 L38,5.2 L38,1.5 L46.6,1.5 C48.7,1.5 49.8,1.7 49.8,2.6 L49.8,4.1 L49.8,4.1 Z M50.1,0.4 C49.1,0.2 48,0 46.6,0 L36.3,0 C35.9,0 35.6,0.3 35.6,0.7 L35.6,9.8 C35.6,10.3 35.9,10.5 36.5,10.5 L37.2,10.5 C37.8,10.5 38.1,10.3 38.1,9.8 L38.1,6.7 L46.7,6.7 C48.2,6.7 49.3,6.5 50.3,6.2 C51.6,5.7 52.3,5 52.3,3.9 L52.3,2.3 C52.2,1.5 51.5,0.9 50.1,0.4" id="Shape"></path>
                <path d="M60.3,2.2 C58.2,2.2 57.3,2.2 56,2.7 C54.8,3.2 54.3,4 54.3,4.8 L54.3,9.8 C54.3,10.2 54.6,10.5 55.1,10.5 L55.8,10.5 C56.3,10.5 56.6,10.3 56.6,9.8 L56.6,4.8 C56.6,4.1 57.5,3.8 59.3,3.8 L60.3,3.8 C60.9,3.8 61.2,3.5 61.2,3 C61.1,2.5 60.8,2.2 60.3,2.2" id="Path"></path>
            </g>
            <rect id="Rectangle" fill="#109DD9" x="0" y="13" width="16.7" height="10.6"></rect>
            <rect id="Rectangle" fill="#109DD9" x="20.1" y="13" width="16.7" height="10.6"></rect>
            <rect id="Rectangle" fill="#075DAA" x="40.2" y="13" width="16.7" height="10.6"></rect>
            <rect id="Rectangle" fill="#E8E8EA" x="60.3" y="13" width="16.7" height="10.6"></rect>
        </g>
    </g>
</svg>