<?xml version="1.0" encoding="UTF-8"?>
<svg width="1019px" height="312px" viewBox="0 0 1019 312" version="1.1" xmlns="http://www.w3.org/2000/svg" xmlns:xlink="http://www.w3.org/1999/xlink">
    <title>gtlb</title>
    <g id="Page-1" stroke="none" stroke-width="1" fill="none" fill-rule="evenodd">
        <g id="gtlb" transform="translate(0.976964, 0.924750)" fill-rule="nonzero">
            <g id="Group" transform="translate(0.000000, 0.000000)">
                <g transform="translate(400.465153, 71.298046)" fill="#8C929D">
                    <polygon id="path14_3_" points="315.257883 2.969204 293.457883 2.969204 293.557883 165.469204 381.857883 165.469204 381.857883 145.369204 315.357883 145.369204"></polygon>
                    <g id="g24_3_" transform="translate(393.185323, 38.453600)">
                        <path d="M72.7,98.5 C67.2,104.2 58.1,109.9 45.7,109.9 C29.1,109.9 22.4,101.7 22.4,91 C22.4,74.9 33.6,67.2 57.4,67.2 C61.9,67.2 69.1,67.7 72.8,68.4 L72.8,98.5 L72.7,98.5 L72.7,98.5 Z M50.1,0 C32.5,0 16.3,6.2 3.7,16.7 L11.4,30.1 C20.3,24.9 31.2,19.7 46.9,19.7 C64.8,19.7 72.7,28.9 72.7,44.3 L72.7,52.2 C69.2,51.5 62,51 57.6,51 C19.4,51 0,64.4 0,92.4 C0,117.5 15.4,130.1 38.7,130.1 C54.4,130.1 69.5,122.9 74.7,111.2 L78.7,127.1 L94.1,127.1 L94.1,43.9 C94,17.6 82.6,0 50.1,0 L50.1,0 Z" id="path26_3_"></path>
                    </g>
                    <g id="g28_3_" transform="translate(515.424787, 2.998134)">
                        <path d="M42.2,146.1 C34,146.1 26.8,145.1 21.4,142.6 L21.4,75.3 L21.4,67.5 C28.8,61.3 38,56.8 49.7,56.8 C70.8,56.8 78.9,71.7 78.9,95.8 C78.9,130 65.8,146.1 42.2,146.1 M51.4,35.5 C31.9,35.5 21.4,48.8 21.4,48.8 L21.4,27.8 L21.3,1.42108547e-14 L11.5,1.42108547e-14 L0,1.42108547e-14 L0.1,158.5 C10.8,163 25.4,165.4 41.3,165.4 C82,165.4 101.6,139.4 101.6,94.5 C101.5,59 83.4,35.5 51.4,35.5" id="path30_3_"></path>
                    </g>
                    <g id="g32_5_" transform="translate(0.000000, -0.000000)">
                        <path d="M77.9,20.6 C97.2,20.6 109.7,27 117.8,33.5 L127.2,17.2 C114.5,6 97.3,1.42108547e-14 78.9,1.42108547e-14 C32.5,1.42108547e-14 0,28.3 0,85.4 C0,145.2 35.1,168.5 75.2,168.5 C95.3,168.5 112.4,163.8 123.6,159.1 L123.1,95.2 L123.1,87.7 L123.1,75.1 L63.6,75.1 L63.6,95.2 L101.6,95.2 L102.1,143.7 C97.1,146.2 88.5,148.2 76.8,148.2 C44.6,148.2 23,127.9 23,85.2 C22.9,41.7 45.2,20.6 77.9,20.6" id="path34_5_"></path>
                    </g>
                    <g id="g36_4_" transform="translate(210.126928, 2.946667)">
                        <path d="M21.3,1.42108547e-14 L0,1.42108547e-14 L0.1,27.3 L0.1,38.5 L0.1,45 L0.1,56.4 L0.1,121.4 L0.1,121.6 C0.1,147.9 11.5,165.5 44,165.5 C48.5,165.5 52.9,165.1 57.1,164.3 L57.1,145.2 C54,145.7 50.7,145.9 47.2,145.9 C29.3,145.9 21.4,136.7 21.4,121.3 L21.4,56.3 L57.1,56.3 L57.1,38.5 L21.4,38.5 L21.3,1.42108547e-14 L21.3,1.42108547e-14 Z" id="path38_4_"></path>
                    </g>
                    <polygon id="path40_33_" points="155.957883 165.469204 177.257883 165.469204 177.257883 41.469204 155.957883 41.469204"></polygon>
                    <polygon id="path42_3_" points="155.957883 24.369204 177.257883 24.369204 177.257883 3.069204 155.957883 3.069204"></polygon>
                </g>
                <g transform="translate(0.000000, -0.000000)">
                    <polygon id="path50_5_" fill="#E24329" points="168.801036 310.96725 168.801036 310.96725 231.000036 119.64525 106.692036 119.64525"></polygon>
                    <path d="M19.5720365,119.64525 L19.5720365,119.64525 L0.631036476,177.77125 C-1.08296352,183.04925 0.768036476,188.87525 5.29203648,192.16525 L168.801036,310.96625 L19.5720365,119.64525 L19.5720365,119.64525 Z" id="path66_12_" fill="#FCA326"></path>
                    <path d="M19.5720365,119.64525 L106.692036,119.64525 L69.1980365,4.42125 C67.2790365,-1.47375 58.9160365,-1.47375 56.9280365,4.42125 L19.5720365,119.64525 L19.5720365,119.64525 Z" id="path74_5_" fill="#E24329"></path>
                    <path d="M318.120036,119.64525 L318.120036,119.64525 L336.993036,177.77125 C338.707036,183.04925 336.856036,188.87525 332.332036,192.16525 L168.801036,310.96725 L318.120036,119.64525 L318.120036,119.64525 Z" id="path82_12_" fill="#FCA326"></path>
                    <path d="M318.120036,119.64525 L231.000036,119.64525 L268.425036,4.42125 C270.344036,-1.47375 278.707036,-1.47375 280.695036,4.42125 L318.120036,119.64525 L318.120036,119.64525 Z" id="path86_5_" fill="#E24329"></path>
                    <polygon id="Path" fill="#FC6D26" points="168.801036 310.96725 231.000036 119.64525 318.120036 119.64525"></polygon>
                    <polygon id="Path" fill="#FC6D26" points="168.801036 310.96725 19.5720365 119.64525 106.692036 119.64525"></polygon>
                </g>
            </g>
        </g>
    </g>
</svg>