<?xml version="1.0" encoding="UTF-8"?>
<svg width="601px" height="100px" viewBox="0 0 601 100" version="1.1" xmlns="http://www.w3.org/2000/svg" xmlns:xlink="http://www.w3.org/1999/xlink">
    <title>mile</title>
    <g id="Page-1" stroke="none" stroke-width="1" fill="none" fill-rule="evenodd">
        <g id="mile" fill="#00A3BD" fill-rule="nonzero">
            <path d="M470.7,21.4 C475.6,21.4 479.6,17.4 479.6,12.5 C479.6,7.6 475.6,3.6 470.7,3.6 C465.8,3.6 461.8,7.6 461.8,12.5 C461.8,17.4 465.8,21.4 470.7,21.4 Z" id="Path"></path>
            <path d="M600,76.9 L593.1,70.3 C592.1,69.4 590.5,69.4 589.5,70.4 C589.4,70.5 589.4,70.5 589.3,70.6 C587.7,72.7 586,74.7 584,76.4 C578.5,81.4 571.3,84.2 563.9,84.2 C561.6,84.2 559.2,83.9 557,83.3 C564.5,78.3 577.6,68.3 580.5,58.4 C582.5,51.5 581.5,44.7 577.8,39.7 C574.5,35.3 568.6,32.1 562.3,32.3 C555,32.5 547,35.5 541,40.9 C530,51 527,67 533.7,80.4 C529.3,83.2 523.2,84.3 517,84.3 C512.1,84.3 507.6,82.8 503.7,79.4 L503.9,79.2 C513.9,67.1 521.9,51.1 526.5,34.2 C529.7,22.5 528.7,11.9 524,5.7 C521.3,2.1 517.1,1.13686838e-13 512.6,1.13686838e-13 C506.7,1.13686838e-13 501.4,2.5 497.1,7.4 C492.7,12.3 489.1,19.9 486.2,30.4 C480.8,50.6 480.6,66.6 485.6,78.2 C479.9,82.8 475,84.2 472,84.2 C470.2,84.2 467,83.8 465.1,81.4 C462.8,78.4 462.6,72.5 464.7,65.1 C466.4,58.8 470.8,42.9 472.8,35.5 C473.1,34.3 472.4,33.1 471.3,32.8 C471.1,32.8 470.9,32.7 470.7,32.7 L460.7,32.7 C459.4,32.7 458.3,33.6 457.9,34.9 L448.9,67.9 C445.5,80 441.6,84.4 437.1,84.4 C434.5,84.4 431.2,83.7 433.1,76.6 C434.3,72 438.1,58.3 438.1,58.3 C438.5,56.8 439.2,53.6 439.1,51.3 C439,46.8 437.9,42.7 435.4,39.4 C432,35 426.6,32.4 420.7,32.4 C414.2,32.4 408.6,35 404.1,39.4 C400.6,35 395.3,32.4 389.3,32.4 C385.8,32.4 381.7,33 378.6,35.4 C378.9,34.3 378.2,33.1 377.1,32.8 C376.9,32.8 376.7,32.7 376.6,32.7 L367,32.7 C365.8,32.7 364.7,33.5 364.3,34.7 C364.1,35.4 363.8,36.6 363.4,38.2 C362.1,41.7 359.4,44 355.4,45.3 C347.9,47.7 337.5,45.2 330.9,39.6 C327.7,36.6 323.8,34.5 319.5,33.4 C303.5,29 286.5,39.9 281.7,57.5 C281.3,59 281,60.5 280.8,62 C276.2,82.9 270.6,84.3 267.9,84.3 C267.2,84.3 265.5,84.2 264.6,82.9 C263.7,81.7 263.2,79.2 264,76.3 C265.6,70.4 269,58.1 270.5,52.5 C271.1,50.5 270.8,48.3 269.7,46.4 C267.8,43.3 264.9,42.7 261.9,42.1 C255.6,40.7 250.5,39 249.6,32.1 C249.4,30.6 248.2,29.5 246.7,29.5 L237.1,29.5 C235.8,29.5 234.7,30.4 234.3,31.6 C232.4,38.3 226.6,59.2 224.4,66.9 C221.4,77.8 215.9,84 208.8,84 C207,84 205.4,83.3 204.5,82.1 C203.2,80.4 203.2,77.9 203.7,76 L203.7,76 L214.3,37.2 L223.2,37.2 C224.5,37.2 225.6,36.3 226,35.1 L228.7,25.5 C229,24.3 228.3,23.1 227.2,22.8 C227,22.8 226.8,22.7 226.6,22.7 L218.3,22.7 L223.7,2.9 C224,1.7 223.3,0.5 222.2,0.2 C222,0.1 221.8,0.1 221.6,0.1 L211.6,0.1 C210.3,0.1 209.2,1 208.8,2.3 L203.3,23 L191.8,23 C190.5,23 189.4,23.9 189,25.1 L186.4,34.7 C186.1,35.9 186.8,37.1 187.9,37.4 C188.1,37.4 188.3,37.5 188.5,37.5 L199.3,37.5 L196.2,48.9 C192.9,60.8 187.6,70.3 180.8,76.4 C175.3,81.4 168.1,84.2 160.6,84.2 C158.3,84.2 155.9,83.9 153.7,83.3 C161.2,78.3 174.4,68.3 177.2,58.4 C179.2,51.5 178.2,44.7 174.5,39.7 C171.2,35.3 165.7,32.2 159.1,32.3 C151.8,32.4 143.8,35.5 137.8,40.9 C130.8,47.2 126.9,56.1 127,65.4 C127,70.6 128.2,75.7 130.5,80.3 C124.9,83.3 118.8,84.9 114.9,84.9 C112.3,84.9 108.8,83.5 110.7,76.3 C111.9,71.7 115.7,58 115.7,58 C116.1,56.5 116.8,53.3 116.7,51 C116.6,46.5 115.5,42.4 113,39.1 C109.6,34.7 104.2,32.1 98.3,32.1 C91.8,32.1 86.2,34.7 81.7,39.1 C78.2,34.7 72.9,32.1 66.9,32.1 C63.9,32.1 60.3,33 56.8,34.7 C56.9,33.8 56.9,32.4 56.9,31.6 C56.7,16.1 44,3.7 28.6,3.9 C13.4,4.2 1,16.6 0.9,31.8 C0.9,43.3 8.7,53.1 19.6,57 C20.9,57.5 22.4,56.8 22.8,55.4 C22.8,55.4 22.8,55.3 22.8,55.2 L25.3,46.1 C25.6,44.8 25,43.5 23.7,43.1 C18.4,41 15.3,36.3 15.3,31.8 C15.3,24.3 21.4,18.3 28.9,18.3 C36.4,18.3 42.4,24.4 42.4,31.9 C42.4,33 42.3,34.1 42,35.2 L38.9,46.4 L37,53.2 L35.5,58.9 L25.4,95.6 C25.1,96.8 25.8,98 26.9,98.3 C27.1,98.3 27.3,98.4 27.5,98.4 L37.5,98.4 C38.8,98.4 39.9,97.5 40.3,96.2 L49.1,64 C52.6,51.4 60.2,46.9 66.1,46.9 C70.3,46.9 70.7,50.5 70,53.7 L58.5,95.6 C58.2,96.8 58.9,98 60,98.3 C60.2,98.3 60.4,98.4 60.6,98.4 L70.6,98.4 C71.9,98.4 73,97.5 73.4,96.3 C75.2,90 80.3,71.2 82.2,64.1 C85.2,53.2 91.1,47 98.2,47 C101.5,47 102.9,49.7 101.9,53.4 C100.4,59 96.6,72.6 96.6,72.6 C94.6,80 95,87.3 98.8,92.3 C102.2,96.8 108.1,99 114.2,99 C122.4,99 131.9,95.4 139.5,91.6 C145.6,96.3 153.2,98.9 161.3,98.9 C171.4,98.9 182.8,94.1 190.6,86.2 C191,87.8 191.7,89.4 192.6,90.9 C195.7,95.9 202.2,98.9 208.5,98.9 C222.3,98.9 233.5,88.8 238.3,71.7 C239.6,67.2 242,58.4 244.2,50.4 C244.4,50.5 244.6,50.7 244.8,50.8 C247.8,52.9 251.1,54.5 254.7,55.4 C254.7,55.4 251.1,68.6 249.9,73 C248,80.3 249,87 252.7,91.9 C256.1,96.4 261.6,99 267.6,99 C274.6,99 279.7,96.3 284.1,91.1 C285.1,89.8 286,88.4 286.8,87 C292.1,94.3 300.5,98.6 309.5,98.6 C315.1,98.6 320.7,96.9 325.7,93.6 C332.7,89 337.7,81.9 340,73.5 C341.3,68.8 341.6,63.8 340.9,58.9 C343.5,59.6 346.2,60 348.9,60 C351.9,60 354.9,59.6 357.8,58.9 C353.1,76 347.7,95.8 347.7,95.8 C347.4,97 348.1,98.2 349.2,98.5 C349.4,98.5 349.6,98.6 349.8,98.6 L359.9,98.6 C361.2,98.6 362.3,97.7 362.7,96.5 L371.5,64.3 C375,51.7 382.6,47.2 388.5,47.2 C392.6,47.2 393,50.8 392.4,54 L380.9,95.9 C380.6,97.1 381.3,98.3 382.4,98.6 C382.6,98.6 382.8,98.7 383,98.7 L393,98.7 C394.3,98.7 395.4,97.8 395.8,96.6 C397.6,90.3 402.7,71.5 404.6,64.4 C407.6,53.5 413.5,47.3 420.6,47.3 C423.9,47.3 425.3,50 424.3,53.7 C422.8,59.3 419,72.9 419,72.9 C417,80.3 417.9,87.2 421.7,92.2 C425.1,96.7 430.6,99.3 436.6,99.3 C440.4,99.3 447.3,98.7 453.5,90.6 L453.6,90.7 C457.8,96.2 464.4,99.2 472,99.2 C478.9,99.2 486.3,96 493.7,90 C501,96.7 510.4,99.2 517.3,99.2 C526,99.2 535.3,95.6 542.9,91.9 C548.9,96.6 556.6,99.2 564.7,99.2 C578,99.2 591.1,92.7 600.3,80.6 C601.1,79.2 600.9,77.7 600,76.9 L600,76.9 Z M143.1,73.9 C141.8,70.9 141.3,67.7 141.5,64.6 C142.1,55 151.6,45.8 159.5,46.6 C164.4,47.1 164.3,52.3 163.3,54.8 C161.8,58.8 154.9,66.4 143.2,73.9 L143.1,73.9 Z M326.6,69.6 C325.2,74.7 322.2,79 318,81.8 C314.1,84.3 309.8,85.1 305.7,84 C301.7,82.9 298.3,80 296.3,75.9 C294.1,71.5 293.7,66.2 295.1,61.1 C297.9,50.8 307.2,44.3 315.9,46.7 C324.6,49 329.3,59.3 326.6,69.6 Z M496.4,66.4 C495.1,58.5 496.6,47.8 500.3,34.2 C504.9,17.4 508.2,14.5 511.5,14.5 C512,14.5 512.4,14.6 512.8,14.9 C515,16.5 514.6,22.7 512.5,30.4 C509.5,41.6 505,52.7 499.2,62 C498.4,63.5 497.4,65 496.4,66.4 L496.4,66.4 Z M546.6,73.8 L546.5,73.9 C545.2,70.9 544.7,67.7 544.9,64.6 C545.5,55 554.3,45.5 562.9,46.6 C563,46.6 563.1,46.6 563.2,46.6 C567.8,47.4 567.7,52.3 566.7,54.8 C565.3,58.5 559.3,65.2 549.1,72.2 C548.3,72.7 547.5,73.3 546.6,73.8 L546.6,73.8 Z" id="Shape"></path>
        </g>
    </g>
</svg>