<?xml version="1.0" encoding="UTF-8"?>
<svg width="222px" height="67px" viewBox="0 0 222 67" version="1.1" xmlns="http://www.w3.org/2000/svg" xmlns:xlink="http://www.w3.org/1999/xlink">
    <title>mp</title>
    <g id="Page-1" stroke="none" stroke-width="1" fill="none" fill-rule="evenodd">
        <g id="mp" fill-rule="nonzero">
            <path d="M25.8,10.4 C24.6,11.4 23.4,12.4 22.3,13.3 L22.3,13.3 C19.2,16 16.2,18.8 13.3,21.7 C10.3,24.6 7.4,27.6 4.6,30.7 C3.7,31.6 2.9,32.6 2,33.6 C3.5,30.7 5.2,27.8 7,25 C8.1,23.3 9.2,21.6 10.4,20 C11.6,18.4 12.9,16.9 14.4,15.5 C15.2,14.7 16.1,14.1 17,13.6 C18,13.1 19.1,13 20.2,13.1 L24,9.9 C21.5,9.2 18.7,8.7 16.2,9.7 C13.8,10.6 11.9,12.5 10.4,14.6 C8.9,16.9 7.5,19.3 6.3,21.8 C5,24.4 3.9,27 2.9,29.6 C2.2,31.2 1.7,33 1.1,34.7 C1.1,34.8 1,35 1.3,34.9 C1.4,34.8 1.5,34.7 1.6,34.7 C1.8,34.5 2,34.4 2.1,34.2 C2.5,33.8 2.9,33.5 3.3,33.2 C4,32.5 4.8,31.8 5.6,31.2 C9.8,27.5 14.2,23.9 18.7,20.5 C21.3,18.5 24,16.6 26.7,14.7 L26.7,14.7 C29.8,12.5 33.1,10.5 36.5,8.8 C38.2,8 40,7.3 41.8,6.8 C42.7,6.5 43.7,6.5 44.7,6.6 C45.6,6.7 46.5,7 47.3,7.4 C48.9,8.2 50.4,9.3 51.7,10.6 C53.1,11.9 54.4,13.3 55.5,14.7 C57.9,17.7 60.2,20.7 62.3,23.9 C64.4,27.1 66.5,30.5 68.3,33.9 L69,35.2 C67.2,33.9 65.3,32.5 63.5,31.2 C62.5,30.5 61.5,29.8 60.4,29.1 C57.6,27.1 54.6,25.2 51.6,23.4 C48.6,21.6 45.6,19.8 42.6,18.1 C39.5,16.5 36.5,14.9 33.4,13.5 C33,13.3 32.6,13.1 32.2,12.9 C31,13.6 29.7,14.4 28.6,15.2 C34.2,17.3 39.7,19.8 45.1,22.5 C50.5,25.2 55.9,28.1 61.2,31 C62.7,31.9 64.1,32.7 65.6,33.5 L67.8,34.8 C68.2,35 68.5,35.2 68.8,35.4 C69,35.5 69.1,35.6 69.4,35.7 C69.5,35.8 69.6,35.8 69.6,35.8 C69.7,35.8 69.7,35.6 69.7,35.6 L69.7,35.6 C68.4,31.3 66.8,27.1 64.9,23.1 C63.1,19 61,15 58.5,11.2 C56.2,7.7 53.4,4.3 49.6,2.3 C47.7,1.2 45.5,0.7 43.3,0.9 C41.3,1.1 39.4,1.7 37.6,2.5 C33.8,4.4 30.2,6.7 27,9.4 C26.6,9.8 26.2,10.1 25.8,10.4" id="Path" fill="#DE7F26"></path>
            <g id="Group" transform="translate(0.000000, 39.000000)" fill="#242B6D">
                <path d="M18.5,14.7 L6.6,0.1 L0.9,0.1 L0.9,27.4 L6.4,27.4 L6.4,8.4 L18,22.4 L18.8,22.4 L30.4,8.4 L30.4,27.4 L36,27.4 L36,0.1 L30.3,0.1 L18.5,14.7 Z M61.1,0.1 L42.9,0.1 L42.9,27.4 L48.5,27.4 L48.5,18.4 L61.1,18.4 C67.9,18.4 72.2,14.9 72.2,9.3 C72.2,3.7 68,0.1 61.1,0.1 Z M60.7,13.3 L48.5,13.3 L48.5,5.2 L60.7,5.2 C62.1,5.2 66.5,5.2 66.5,9.3 C66.5,12 64.7,13.3 60.7,13.3 Z" id="Shape"></path>
                <polygon id="Path" points="99 9 99 22.8 96.6 22.8 96.6 12.2 90 20.2 90 20.2 83.4 12.2 83.4 22.8 81.1 22.8 81.1 9 83.7 9 90.1 16.9 96.5 9"></polygon>
                <path d="M114.2,19.5 L105.3,19.5 L103.5,22.8 L101,22.8 L108.5,9 L111.1,9 L118.6,22.8 L116,22.8 L114.2,19.5 Z M113.2,17.5 L109.8,11.1 L106.4,17.5 L113.2,17.5 C113.2,17.4 113.2,17.5 113.2,17.5 Z" id="Shape"></path>
                <polygon id="Path" points="131.3 11 125 11 125 22.8 122.7 22.8 122.7 11 116.5 11 116.5 9 131.4 9 131.3 11"></polygon>
                <polygon id="Path" points="147.2 20.7 147.2 22.8 133.4 22.8 133.4 9 147 9 147 11.1 135.8 11.1 135.8 14.8 145.2 14.8 145.2 16.9 135.8 16.9 135.8 20.8 147.2 20.7"></polygon>
                <path d="M162.2,22.8 L157.9,17.8 L152.1,17.8 L152.1,22.8 L149.7,22.8 L149.7,9 L159.1,9 C162.3,9 164.7,10.5 164.7,13.4 C164.7,15.8 163.1,17.2 160.7,17.7 L165.2,22.8 L162.2,22.8 L162.2,22.8 L162.2,22.8 Z M158.9,15.7 C160.9,15.7 162.2,15.1 162.2,13.4 C162.2,11.7 160.8,11.1 158.9,11.1 L152,11.1 L152,15.8 L158.9,15.7 L158.9,15.7 Z" id="Shape"></path>
                <polygon id="Path" points="167.6 22.8 167.6 9 170 9 170 22.8"></polygon>
                <path d="M185.2,19.5 L176.3,19.5 L174.5,22.8 L172,22.8 L179.5,9 L182.1,9 L189.6,22.8 L187,22.8 L185.2,19.5 Z M184.1,17.5 L180.7,11.1 L177.3,17.5 L184.1,17.5 Z" id="Shape"></path>
                <polygon id="Path" points="204.1 20.7 204.1 22.8 191.6 22.8 191.6 9 194 9 194 20.7"></polygon>
                <path d="M221.1,18.7 C221.1,21.3 218.5,23.2 213.8,23.2 C210.6,23.2 207.7,22.3 205.5,20.4 L207,18.7 C208.9,20.4 211.3,21.2 213.9,21.2 C217,21.2 218.7,20.4 218.7,18.9 C218.7,17.4 217,17.1 213.5,16.8 C209.7,16.5 206.1,15.6 206.1,12.8 C206.1,10 209.3,8.5 213.3,8.5 C215.9,8.4 218.4,9.2 220.5,10.8 L219,12.4 C217.6,11.2 215.6,10.6 213.3,10.6 C211.1,10.6 208.5,11.1 208.5,12.7 C208.5,14.2 210.8,14.4 213.8,14.7 C218.1,14.9 221.1,15.8 221.1,18.7 Z" id="Path"></path>
            </g>
        </g>
    </g>
</svg>