<svg fill="none" height="255" viewBox="0 0 705 255" width="705" xmlns="http://www.w3.org/2000/svg" xmlns:xlink="http://www.w3.org/1999/xlink">
                    <defs>
                        <linearGradient id="a" gradientUnits="userSpaceOnUse" x1="233.363" x2="52.7089" y1="250.439" y2="69.7853">
                            <stop offset="0" stop-color="#f7c746"></stop>
                            <stop offset="1" stop-color="#e88d3d"></stop>
                        </linearGradient>
                    <linearGradient id="a" gradientUnits="userSpaceOnUse" x1="233.363" x2="52.7089" y1="250.439" y2="69.7853">
                            <stop offset="0" stop-color="#f7c746"></stop>
                            <stop offset="1" stop-color="#e88d3d"></stop>
                        </linearGradient><linearGradient id="a" gradientUnits="userSpaceOnUse" x1="233.363" x2="52.7089" y1="250.439" y2="69.7853">
                            <stop offset="0" stop-color="#f7c746"></stop>
                            <stop offset="1" stop-color="#e88d3d"></stop>
                        </linearGradient></defs>
                    <g fill="#232323" class="logo-text">
                        <path d="m300.791 71.8418h30.909v111.0442h-30.909z" fill="#FFFFFF"></path>
                        <path d="m411.835 127.648v-.286c0-31.7674 25.758-57.8112 60.101-57.8112s59.529 25.4714 59.529 57.5252v.286c0 31.768-25.758 57.812-60.101 57.812-34.344 0-59.529-25.472-59.529-57.526zm87.862 0v-.286c0-16.313-11.448-30.0503-28.333-30.0503-16.886 0-28.334 13.7373-28.334 29.7643v.286c0 16.027 11.448 30.051 28.62 30.051 16.885 0 28.047-13.738 28.047-29.765z" fill="#FFFFFF"></path>
                        <path d="m640.791 99.0313h-33.199v-26.9024h97.307v26.9024h-33.199v84.1417h-30.909z" fill="#FFFFFF"></path>
                    </g>
                    <g fill="url(&quot;#a&quot;)" class="logo-wrapper">
                        <path d="m110.471 0-110.471 63.8215v127.3565l110.471 63.822 110.472-63.822v-127.3565zm24.613 186.313-22.323-33.485h-.286-13.1652v33.485h-30.3367v-45.219h-18.6027v-21.751h18.6027 30.6229 9.158s-.286 2.004-2.003 2.004h-7.155v7.441h20.034c5.151 0 9.158-1.145 12.02-3.434 2.862-2.29 4.293-5.438 4.293-9.445v-.286c0-4.293-1.431-7.727-4.293-9.731-2.862-2.289-6.869-3.148-12.02-3.148h-20.034v7.441h7.155c1.717 0 2.003 2.004 2.003 2.004h-39.7809v-14.5964h-18.6027v-21.7508h70.6906c8.585 0 15.74 1.1447 21.464 3.1481 6.01 2.0034 10.589 5.1515 14.31 8.8721 6.583 6.2963 9.731 14.882 9.731 25.758v.286c0 8.586-2.004 15.454-6.01 21.178-4.007 5.438-9.731 9.731-16.6 12.879l26.33 38.35z" fill="url(&quot;#a&quot;)"></path>
                    </g>
                </svg>