<?xml version="1.0" encoding="utf-8"?>
<!-- Generator: Adobe Illustrator 23.0.3, SVG Export Plug-In . SVG Version: 6.00 Build 0)  -->
<!DOCTYPE svg PUBLIC "-//W3C//DTD SVG 1.0//EN" "http://www.w3.org/TR/2001/REC-SVG-20010904/DTD/svg10.dtd" [
	<!ENTITY ns_extend "http://ns.adobe.com/Extensibility/1.0/">
	<!ENTITY ns_ai "http://ns.adobe.com/AdobeIllustrator/10.0/">
	<!ENTITY ns_graphs "http://ns.adobe.com/Graphs/1.0/">
	<!ENTITY ns_vars "http://ns.adobe.com/Variables/1.0/">
	<!ENTITY ns_imrep "http://ns.adobe.com/ImageReplacement/1.0/">
	<!ENTITY ns_sfw "http://ns.adobe.com/SaveForWeb/1.0/">
	<!ENTITY ns_custom "http://ns.adobe.com/GenericCustomNamespace/1.0/">
	<!ENTITY ns_adobe_xpath "http://ns.adobe.com/XPath/1.0/">
]>
<svg version="1.0" xmlns:x="&ns_extend;" xmlns:i="&ns_ai;" xmlns:graph="&ns_graphs;"
	 xmlns="http://www.w3.org/2000/svg" xmlns:xlink="http://www.w3.org/1999/xlink" x="0px" y="0px" width="968.47px"
	 height="430.05px" viewBox="0 0 968.47 430.05" style="enable-background:new 0 0 968.47 430.05;" xml:space="preserve">
<switch>
 <g>
  <g id="Insurance">
   <path d="M182.49,321.69h12.58v91.12h-12.58V321.69z"/>
   <path d="M227.39,364.34v48.47h-12.27v-69.02h12.27v10.28c6.44-6.44,16.26-12.12,26.08-12.12c9.66,0,18.41,5.37,18.41,19.33
            v51.54H259.6v-47.7c0-8.28-3.83-12.12-10.43-12.12C241.04,352.99,232.45,359.13,227.39,364.34z"/>
   <path d="M334.86,347.78l-3.68,9.82c-3.68-2.61-10.43-5.21-17.64-5.21c-6.44,0-11.96,2.61-11.96,8.59
            c0,6.6,6.75,8.74,13.96,11.04c10.89,3.22,21.93,6.75,21.93,20.25c0,15.03-11.2,22.39-25,22.39c-11.35,0-20.71-4.6-25.16-8.9
            l4.45-9.36c4.29,3.37,12.27,7.67,20.55,7.67c7.67,0,13.34-3.53,13.34-9.66c0-6.14-5.98-8.28-12.88-10.58
            c-10.12-2.91-22.55-7.06-22.55-21.17c0-13.96,10.43-20.71,24.08-20.71C324.12,341.95,331.64,345.48,334.86,347.78z"/>
   <path d="M397.55,402.53c-6.44,6.44-16.26,12.12-26.08,12.12c-9.66,0-18.56-5.37-18.56-19.33v-51.54h12.42v47.7
            c0,8.28,3.83,12.12,10.43,12.12c8.13,0,16.72-6.14,21.78-11.35v-48.47h12.27v69.02h-12.27V402.53z"/>
   <path d="M440.91,370.17v42.64h-12.27v-69.02h12.27v16.57c3.99-10.89,14.26-18.41,24.39-18.41v12.42
            C458.09,355.91,446.89,359.43,440.91,370.17z"/>
   <path d="M515.1,404.68c-5.52,6.6-12.42,9.97-20.4,9.97c-10.28,0-19.33-5.68-19.33-17.95c0-13.34,9.66-21.01,28.68-22.7
            l10.89-0.92v-9.2c0-9.36-6.75-10.89-12.58-10.89c-9.97,0-15.95,3.07-20.55,5.37l-2.91-9.2c6.14-3.99,16.72-7.21,26.69-7.21
            c12.42,0,21.63,5.21,21.63,18.87v52h-11.96L515.1,404.68z M497.77,404.53c5.06,0,11.5-1.99,17.18-9.36v-13.19l-13.96,1.69
            c-7.67,0.92-13.5,4.14-13.34,11.66C487.65,401,491.02,404.53,497.77,404.53z"/>
   <path d="M558.31,364.34v48.47h-12.27v-69.02h12.27v10.28c6.44-6.44,16.26-12.12,26.08-12.12c9.66,0,18.41,5.37,18.41,19.33
            v51.54h-12.27v-47.7c0-8.28-3.83-12.12-10.43-12.12C571.96,352.99,563.37,359.13,558.31,364.34z"/>
   <path d="M674.99,408.36c-4.6,2.91-11.04,6.14-20.4,6.14c-19.63,0-34.2-13.65-34.2-36.35c0-22.55,14.57-36.2,34.2-36.2
            c7.52,0,13.96,2.15,19.02,4.6l-3.68,10.28c-4.14-2.61-9.36-4.14-14.88-4.14c-11.2,0-21.63,7.82-21.63,25.46
            c0,17.79,10.43,25.46,21.63,25.46c6.29,0,11.81-2.3,15.95-4.91L674.99,408.36z"/>
   <path d="M721.42,414.65c-20.55,0-34.05-13.65-34.05-36.05c0-22.7,14.42-36.66,32.52-36.66c18.25,0,28.22,13.65,28.22,28.68v7.82
            h-47.86c0.15,17.33,10.43,25.15,23.31,25.15c8.13,0,14.57-3.07,18.87-6.29l3.83,8.9C740.89,410.51,732.61,414.65,721.42,414.65z
            M701.17,369.1h34.82c-1.38-11.35-6.9-17.18-16.41-17.18C710.83,351.92,703.62,357.44,701.17,369.1z"/>
  </g>
  <g id="Co">
   <path d="M857.92,406.13c-6.75,4.6-14.72,7.52-24.39,7.52c-22.55,0-41.11-15.65-41.11-48.32c0-32.67,18.71-48.93,41.87-48.93
            c8.13,0,15.34,1.99,21.63,5.52l-3.68,9.82c-4.76-1.99-10.89-3.83-17.64-3.83c-17.03,0-29.14,12.12-29.14,37.12
            c0,25,12.12,37.12,29.14,37.12c7.36,0,13.96-2.3,18.87-5.52L857.92,406.13z"/>
   <path d="M867.38,377.3c0-23.47,16.11-36.35,33.13-36.35c17.18,0,33.28,12.88,33.28,36.35s-16.1,36.35-33.28,36.35
            C883.49,413.65,867.38,400.77,867.38,377.3z M920.91,377.3c0-18.1-9.82-26.38-20.4-26.38c-10.43,0-20.25,8.28-20.25,26.38
            c0,18.1,9.82,26.38,20.25,26.38C911.1,403.68,920.91,395.4,920.91,377.3z"/>
  </g>
  <g id="Root">
   <path d="M192.04,179.39l5.02-2.52c31.89-16.05,50.18-44.28,50.18-77.44c0-25.09-8.05-44.84-23.92-58.69
            c-19.26-16.81-50.3-25.33-92.28-25.33c-34.76,0-78.64,5.9-96.36,8.38l0,252.11h69.31v-85.65h29.56l49.05,85.65h76.84
            L192.04,179.39z M129.43,148.44h-25.44V66.07l2.66-0.45c5.81-0.99,14.46-1.66,21.53-1.66c30.13,0,46.73,14.99,46.73,42.2
            C174.91,130.26,155.36,148.44,129.43,148.44z"/>
   <path d="M470.19,78.68c-21.79-19.63-52.08-30.44-85.3-30.44c-32.78,0-62.79,10.81-84.49,30.43
            c-23.69,21.42-36.21,51.92-36.21,88.19c0,36.26,12.52,66.72,36.21,88.09c21.68,19.56,51.69,30.34,84.49,30.34
            c33.24,0,63.53-10.78,85.3-30.34c23.71-21.32,36.25-51.78,36.25-88.09C506.45,130.54,493.91,100.05,470.19,78.68z M416.3,218.48
            c-7.57,10.42-18.24,15.93-30.85,15.93c-12.57,0-23.21-5.51-30.77-15.93c-8.49-11.7-12.79-29.07-12.79-51.62
	    c0-22.57,4.3-39.96,12.78-51.71c7.57-10.48,18.21-16.02,30.77-16.02c12.6,0,23.27,5.54,30.86,16.02
            c8.49,11.74,12.8,29.14,12.8,51.71C429.1,189.42,424.79,206.79,416.3,218.48z"/>
   <path d="M871.79,189.7v-67.56v-3.24h3.24h46.91V67.54h-46.91h-3.24v-3.24V17.17l-71.91,21.76l0.35,171.44
            c0,21.32,6.45,39.53,18.67,52.65c12.46,13.39,30.15,20.47,51.14,20.47c25,0,50.7-4.04,63.76-8.08v-60.51
            c-7.84,2.26-18.95,4.46-32.55,4.46C876.8,219.37,871.79,207.51,871.79,189.7z"/>
   <path d="M738.21,78.68c-21.79-19.63-52.08-30.44-85.3-30.44c-32.78,0-62.79,10.81-84.49,30.43
            c-23.69,21.42-36.21,51.92-36.21,88.19c0,36.26,12.52,66.72,36.21,88.09c21.68,19.56,51.69,30.34,84.49,30.34
            c33.24,0,63.53-10.78,85.3-30.34c23.71-21.32,36.25-51.78,36.25-88.09C774.46,130.54,761.92,100.05,738.21,78.68z M684.31,218.48
            c-7.57,10.42-18.24,15.93-30.85,15.93c-12.57,0-23.21-5.51-30.77-15.93c-8.49-11.7-12.79-29.07-12.79-51.62
            c0-22.57,4.3-39.96,12.78-51.71c7.57-10.48,18.21-16.02,30.77-16.02c12.6,0,23.27,5.54,30.86,16.02
            c8.49,11.74,12.8,29.14,12.8,51.71C697.12,189.42,692.81,206.79,684.31,218.48z"/>
   </g>
  </g>
 </switch>
</svg>