<?xml version="1.0" encoding="UTF-8" ?>
<!DOCTYPE svg PUBLIC "-//W3C//DTD SVG 1.1//EN" "http://www.w3.org/Graphics/SVG/1.1/DTD/svg11.dtd">
<svg width="1141pt" height="314pt" viewBox="0 0 1141 314" version="1.1" xmlns="http://www.w3.org/2000/svg">
<g id="#ffffffff">
<path fill="#ffffff" opacity="1.00" d=" M 298.53 84.59 C 301.83 82.18 305.78 80.11 309.99 80.44 C 312.45 80.53 314.54 82.73 314.65 85.15 C 315.31 91.92 312.47 98.41 309.06 104.08 C 298.53 120.51 282.55 132.52 266.15 142.63 C 269.59 130.17 274.43 118.09 280.77 106.81 C 285.54 98.60 290.98 90.50 298.53 84.59 Z" />
<path fill="#ffffff" opacity="1.00" d=" M 450.22 84.20 C 453.58 81.84 457.68 79.84 461.90 80.56 C 465.26 81.15 466.55 84.92 466.19 87.93 C 465.37 97.21 460.08 105.35 454.35 112.41 C 443.98 124.69 430.92 134.36 417.26 142.67 C 421.21 128.83 426.71 115.38 434.18 103.05 C 438.58 96.06 443.53 89.19 450.22 84.20 Z" />
<path fill="#ffffff" opacity="1.00" d=" M 1001.41 90.31 C 1009.53 83.67 1020.22 79.79 1030.75 81.63 C 1024.41 94.24 1018.42 107.03 1012.72 119.95 C 1005.90 135.92 997.96 151.57 987.27 165.33 C 981.80 172.14 975.63 178.93 967.47 182.49 C 964.30 183.64 960.18 185.40 957.28 182.75 C 954.07 179.77 955.41 174.95 955.80 171.15 C 958.52 155.39 965.05 140.57 972.64 126.60 C 980.28 113.16 989.24 100.05 1001.41 90.31 Z" />
</g>
<g id="#013240ff">
<path fill="#013240" opacity="1.00" d=" M 327.93 5.25 C 338.38 4.76 349.21 4.93 359.06 0.88 C 359.73 1.69 360.39 2.52 361.06 3.34 C 356.92 8.49 351.62 12.71 345.62 15.47 C 336.01 19.68 325.40 20.70 315.04 21.13 C 299.01 21.24 282.98 21.14 266.95 21.22 C 264.92 21.11 263.53 22.85 262.05 23.95 C 253.93 30.83 248.33 40.07 243.46 49.40 C 234.98 66.47 228.30 84.34 221.44 102.10 C 210.05 131.49 200.22 161.45 188.85 190.85 C 183.93 203.75 178.96 217.11 169.57 227.54 C 162.54 235.52 152.91 241.24 142.41 243.14 C 137.01 244.05 131.51 244.39 126.05 244.09 C 125.40 243.00 124.75 241.92 124.09 240.84 C 132.76 235.35 137.75 226.01 142.20 217.10 C 151.94 196.71 158.70 175.10 166.90 154.08 C 174.64 133.62 182.56 113.23 190.66 92.91 C 195.01 82.14 199.15 71.20 205.16 61.20 C 213.52 46.76 225.29 34.32 239.33 25.29 C 241.43 23.92 243.58 22.61 245.62 21.13 C 225.74 21.49 205.76 20.39 185.97 22.77 C 169.64 24.82 153.18 28.64 138.83 36.99 C 127.99 43.25 118.53 52.82 114.59 64.92 C 111.35 74.75 111.04 85.95 115.61 95.43 C 113.13 97.29 110.07 96.03 107.42 95.34 C 98.37 92.64 91.01 85.05 88.71 75.87 C 85.87 65.70 88.82 54.82 94.02 45.93 C 101.73 33.09 114.57 24.24 128.11 18.39 C 146.74 10.42 167.05 6.83 187.20 5.86 C 190.77 6.48 194.35 7.09 197.98 7.09 C 236.98 6.93 275.98 7.12 314.98 7.00 C 321.70 7.06 328.45 7.20 335.15 6.44 C 325.45 5.70 315.72 6.10 306.01 6.05 C 276.34 5.95 246.68 6.05 217.01 5.98 C 208.86 5.87 200.68 6.44 192.55 5.54 C 194.70 5.35 196.86 5.28 199.02 5.27 C 241.99 5.27 284.96 5.31 327.93 5.25 Z" />
<path fill="#013240" opacity="1.00" d=" M 556.27 24.26 C 571.28 12.43 590.05 6.09 608.96 4.41 C 623.20 3.22 637.98 2.70 651.72 7.26 C 658.28 9.51 665.06 13.56 667.52 20.41 C 669.58 25.88 667.76 31.93 664.53 36.55 C 658.57 45.17 649.85 51.57 640.49 56.11 C 639.90 55.58 638.71 54.52 638.11 53.99 C 643.91 48.22 647.90 40.34 647.43 32.00 C 647.71 24.76 642.10 18.85 635.75 16.29 C 624.81 11.75 612.29 12.03 601.06 15.35 C 590.75 18.34 581.68 24.66 574.35 32.39 C 564.46 42.74 557.40 55.41 551.56 68.38 C 551.19 69.41 550.44 70.41 550.54 71.55 C 550.56 71.90 550.61 72.62 550.63 72.98 C 561.40 73.12 572.18 72.95 582.95 73.03 C 592.39 72.95 601.85 73.32 611.28 72.56 C 609.10 72.18 606.92 71.80 604.74 71.53 C 613.22 70.96 621.78 71.21 630.20 69.85 C 629.17 72.76 628.07 75.65 626.98 78.54 C 614.51 80.62 605.05 89.91 597.71 99.58 C 586.95 113.90 579.24 130.41 574.26 147.58 C 571.70 157.10 569.74 167.01 570.67 176.91 C 571.05 180.96 572.92 185.53 577.10 186.93 C 583.41 188.92 589.69 185.25 594.39 181.31 C 603.93 173.11 610.60 162.16 616.21 151.04 C 625.47 131.73 631.34 110.42 630.67 88.89 C 630.20 86.69 632.43 85.53 634.13 84.86 C 637.24 83.71 640.58 83.48 643.81 82.78 C 657.67 79.90 671.33 76.17 685.03 72.61 C 692.10 70.91 699.67 68.85 706.86 71.03 C 712.28 72.71 713.18 79.24 712.18 84.05 C 709.82 97.03 704.20 109.09 699.08 121.16 C 706.09 111.28 712.89 101.15 721.39 92.45 C 730.44 83.04 741.04 74.35 753.84 70.80 C 760.76 69.05 768.55 68.60 775.07 71.97 C 779.79 74.37 782.64 79.68 782.30 84.95 C 781.82 94.77 777.81 103.96 773.96 112.87 C 765.45 131.19 755.80 149.01 748.60 167.93 C 744.17 180.13 739.41 192.77 740.21 205.98 C 740.16 209.52 741.06 212.97 742.33 216.25 C 741.19 216.85 740.06 217.44 738.94 218.04 C 731.12 216.05 723.45 211.95 719.03 204.97 C 713.26 195.73 713.15 184.05 715.94 173.79 C 720.69 155.68 729.43 138.99 737.42 122.16 C 741.96 112.59 747.23 103.17 749.45 92.71 C 748.80 89.99 746.05 88.60 743.46 89.67 C 737.39 91.93 732.88 96.91 728.36 101.36 C 713.97 116.78 701.57 134.13 691.92 152.89 C 683.50 168.75 676.04 185.08 668.17 201.21 C 658.74 201.20 649.31 201.10 639.88 201.26 C 652.00 171.96 664.17 142.68 675.32 112.99 C 677.39 107.05 680.00 101.26 681.55 95.15 C 682.29 92.24 682.78 88.14 679.70 86.39 C 677.78 85.83 675.76 86.26 673.84 86.52 C 667.81 87.59 661.77 88.63 655.74 89.68 C 655.28 100.84 652.17 111.69 648.36 122.13 C 642.67 138.58 634.44 154.15 623.75 167.90 C 614.14 180.21 602.58 191.51 588.30 198.21 C 577.03 203.36 563.47 205.38 551.84 200.24 C 543.98 196.75 539.18 188.50 538.38 180.14 C 536.43 161.34 542.55 142.76 550.97 126.20 C 560.29 108.88 572.97 92.26 590.83 83.15 C 591.49 82.89 591.54 82.19 591.71 81.60 L 590.66 83.08 C 586.34 83.32 582.07 84.32 577.75 84.12 C 574.21 83.48 570.64 82.85 567.04 82.90 C 559.23 83.04 551.40 82.56 543.62 83.43 C 552.82 84.58 562.10 83.45 571.32 84.43 C 562.44 84.89 553.55 84.62 544.67 84.57 C 535.91 106.88 528.00 129.50 519.95 152.06 C 513.51 169.51 507.90 187.28 500.48 204.35 C 494.88 216.51 488.20 229.07 476.78 236.71 C 468.11 242.75 457.16 244.31 446.83 243.51 L 447.52 243.45 C 451.51 243.05 455.51 242.72 459.51 242.35 C 455.22 242.05 450.93 241.64 446.68 240.99 C 458.24 231.32 463.60 216.76 469.08 203.20 C 474.10 191.15 478.47 178.85 483.18 166.67 C 467.98 181.87 450.26 195.80 429.00 201.02 C 417.50 203.68 404.60 204.96 393.78 199.27 C 384.89 194.69 380.22 184.61 379.66 174.97 C 378.88 158.11 384.08 141.51 391.58 126.59 C 398.07 113.74 406.47 101.83 416.60 91.60 C 430.42 78.73 447.78 68.11 467.03 66.87 C 472.56 66.81 478.58 67.38 483.16 70.77 C 487.92 74.35 488.79 81.01 487.76 86.50 C 485.88 97.42 478.92 106.57 471.60 114.52 C 455.57 131.33 435.39 143.41 414.73 153.64 C 413.02 161.24 411.58 169.10 412.66 176.90 C 413.35 181.60 417.01 185.80 421.81 186.51 C 430.09 187.73 438.41 185.19 445.86 181.73 C 461.11 174.26 473.72 162.41 484.78 149.71 C 488.41 144.98 493.20 140.85 495.04 135.00 C 501.17 118.25 507.45 101.55 513.93 84.94 C 508.27 85.18 502.54 85.25 497.08 86.98 C 496.81 86.23 496.26 84.73 495.98 83.99 C 502.22 77.60 510.55 73.55 519.37 72.29 C 528.31 54.08 540.03 36.73 556.27 24.26 M 450.22 84.20 C 443.53 89.19 438.58 96.06 434.18 103.05 C 426.71 115.38 421.21 128.83 417.26 142.67 C 430.92 134.36 443.98 124.69 454.35 112.41 C 460.08 105.35 465.37 97.21 466.19 87.93 C 466.55 84.92 465.26 81.15 461.90 80.56 C 457.68 79.84 453.58 81.84 450.22 84.20 Z" />
<path fill="#013240" opacity="1.00" d=" M 391.89 23.93 C 400.96 22.06 410.08 20.43 419.18 18.69 C 412.55 36.12 404.62 53.02 396.97 70.02 C 387.65 90.41 378.35 110.81 369.65 131.47 C 362.69 148.55 355.62 165.66 350.75 183.48 C 348.20 194.23 345.68 205.66 348.88 216.55 C 347.78 217.12 346.69 217.69 345.61 218.26 C 338.95 216.00 332.45 212.55 328.08 206.89 C 324.70 202.60 322.43 197.36 321.83 191.92 C 323.43 187.39 323.29 182.61 321.93 178.04 C 322.17 175.01 322.99 172.07 323.70 169.12 C 313.19 180.34 300.82 189.96 286.88 196.54 C 274.85 202.04 260.98 205.33 247.91 201.83 C 239.97 199.84 233.26 193.74 230.67 185.96 C 226.31 173.28 228.76 159.51 232.24 146.92 C 238.50 126.56 249.80 107.79 264.55 92.45 C 278.25 79.21 295.70 68.52 315.03 66.90 C 321.49 66.70 329.05 67.28 333.62 72.46 C 337.45 76.77 337.21 83.08 336.14 88.38 C 333.64 99.18 326.50 108.11 319.03 115.97 C 303.21 132.08 283.54 143.62 263.53 153.71 C 261.84 161.37 260.32 169.31 261.33 177.17 C 261.77 181.72 265.21 186.04 269.89 186.62 C 278.21 187.66 286.40 184.58 293.55 180.57 C 306.09 173.24 316.47 162.74 325.60 151.56 C 329.89 146.11 334.49 140.74 337.05 134.20 C 352.30 99.62 367.43 64.99 383.63 30.84 C 385.18 27.46 388.11 24.57 391.89 23.93 M 298.53 84.59 C 290.98 90.50 285.54 98.60 280.77 106.81 C 274.43 118.09 269.59 130.17 266.15 142.63 C 282.55 132.52 298.53 120.51 309.06 104.08 C 312.47 98.41 315.31 91.92 314.65 85.15 C 314.54 82.73 312.45 80.53 309.99 80.44 C 305.78 80.11 301.83 82.18 298.53 84.59 Z" />
<path fill="#013240" opacity="1.00" d=" M 895.56 77.52 C 909.48 69.68 926.15 66.19 941.92 69.48 C 946.60 70.51 951.60 72.58 953.93 77.06 C 956.63 82.38 954.86 88.88 951.27 93.34 C 945.10 101.24 935.92 106.02 926.85 109.81 C 925.92 108.96 924.99 108.11 924.09 107.26 C 929.59 101.93 934.02 94.83 934.23 86.99 C 934.28 83.52 931.63 80.25 928.08 80.08 C 920.29 79.01 913.64 84.28 908.25 89.20 C 896.99 100.26 888.92 114.13 882.47 128.42 C 876.81 141.59 872.48 155.56 871.81 169.95 C 871.68 174.63 872.09 179.92 875.57 183.42 C 878.58 186.36 883.13 186.71 887.07 185.89 C 895.74 184.31 903.30 179.34 910.01 173.85 C 916.85 168.20 923.41 161.99 928.25 154.51 C 938.86 129.21 953.10 104.13 975.67 87.68 C 992.33 75.24 1013.28 69.10 1033.99 69.53 C 1043.57 69.77 1053.71 70.73 1062.00 75.97 C 1049.70 102.07 1038.62 128.78 1029.38 156.12 C 1024.22 170.91 1020.95 186.39 1019.88 202.02 C 1019.52 207.01 1020.18 212.04 1021.64 216.82 C 1017.68 218.92 1013.44 216.94 1009.74 215.24 C 1002.71 211.85 997.27 205.21 995.79 197.49 C 993.97 188.01 996.09 178.33 998.46 169.14 C 991.91 177.59 985.05 185.99 976.32 192.31 C 967.06 199.25 955.77 204.57 943.94 203.75 C 937.42 203.44 930.77 200.32 927.33 194.61 C 923.84 189.07 923.43 182.29 923.63 175.92 C 911.27 189.10 895.52 199.96 877.48 203.23 C 867.69 204.60 856.74 204.45 848.46 198.33 C 842.98 194.51 840.15 188.17 838.45 181.91 C 827.87 192.29 814.72 200.88 799.87 203.29 C 791.79 204.39 782.30 203.96 776.32 197.66 C 770.86 191.88 771.01 183.15 772.51 175.85 C 775.88 158.91 783.55 143.30 790.50 127.62 C 797.30 112.73 804.41 97.97 811.38 83.15 C 813.11 79.28 816.71 76.32 820.90 75.52 C 830.44 73.47 840.10 72.03 849.70 70.23 C 836.10 98.36 822.64 126.58 810.72 155.47 C 807.91 162.76 805.13 170.16 803.86 177.90 C 803.11 181.10 805.15 184.74 808.42 185.45 C 812.13 186.20 815.81 184.76 819.05 183.08 C 825.60 179.62 831.11 174.51 836.15 169.14 C 837.14 167.94 838.55 166.82 838.62 165.13 C 841.10 147.68 847.91 131.03 857.23 116.14 C 866.98 100.74 879.29 86.26 895.56 77.52 M 1001.41 90.31 C 989.24 100.05 980.28 113.16 972.64 126.60 C 965.05 140.57 958.52 155.39 955.80 171.15 C 955.41 174.95 954.07 179.77 957.28 182.75 C 960.18 185.40 964.30 183.64 967.47 182.49 C 975.63 178.93 981.80 172.14 987.27 165.33 C 997.96 151.57 1005.90 135.92 1012.72 119.95 C 1018.42 107.03 1024.41 94.24 1030.75 81.63 C 1020.22 79.79 1009.53 83.67 1001.41 90.31 Z" />
</g>
<g id="#011728ff">
<path fill="#011728" opacity="1.00" d=" M 187.20 5.86 C 188.97 5.68 190.76 5.47 192.55 5.54 C 200.68 6.44 208.86 5.87 217.01 5.98 C 246.68 6.05 276.34 5.95 306.01 6.05 C 315.72 6.10 325.45 5.70 335.15 6.44 C 328.45 7.20 321.70 7.06 314.98 7.00 C 275.98 7.12 236.98 6.93 197.98 7.09 C 194.35 7.09 190.77 6.48 187.20 5.86 Z" />
</g>
<g id="#013140ff">
<path fill="#013140" opacity="1.00" d=" M 853.11 18.21 C 858.93 16.48 865.72 19.97 867.12 26.01 C 869.38 35.76 862.51 46.41 852.96 49.01 C 848.83 50.09 844.01 49.08 841.19 45.74 C 837.70 41.71 837.62 35.73 839.46 30.94 C 841.72 24.96 846.71 19.64 853.11 18.21 Z" />
</g>
<g id="#001222ff">
<path fill="#001222" opacity="1.00" d=" M 550.54 71.55 C 568.60 71.47 586.67 71.47 604.74 71.53 C 606.92 71.80 609.10 72.18 611.28 72.56 C 601.85 73.32 592.39 72.95 582.95 73.03 C 572.18 72.95 561.40 73.12 550.63 72.98 C 550.61 72.62 550.56 71.90 550.54 71.55 Z" />
</g>
<g id="#011b27ff">
<path fill="#011b27" opacity="1.00" d=" M 543.62 83.43 C 551.40 82.56 559.23 83.04 567.04 82.90 C 570.64 82.85 574.21 83.48 577.75 84.12 C 575.60 84.34 573.46 84.54 571.32 84.43 C 562.10 83.45 552.82 84.58 543.62 83.43 Z" />
</g>
<g id="#011a26ff">
<path fill="#011a26" opacity="1.00" d=" M 321.93 178.04 C 323.29 182.61 323.43 187.39 321.83 191.92 C 321.15 187.33 321.11 182.62 321.93 178.04 Z" />
</g>
<g id="#0c1e30ff">
<path fill="#0c1e30" opacity="1.00" d=" M 446.11 240.92 L 446.68 240.99 C 450.93 241.64 455.22 242.05 459.51 242.35 C 455.51 242.72 451.51 243.05 447.52 243.45 C 447.17 242.81 446.47 241.55 446.11 240.92 Z" />
</g>
<g id="#01323fff">
<path fill="#01323f" opacity="1.00" d=" M 411.30 298.30 C 427.87 297.91 444.45 298.20 461.03 298.06 C 481.03 298.28 501.02 297.61 521.03 297.78 C 555.03 297.78 589.03 297.79 623.04 297.78 C 639.70 297.60 656.35 298.26 673.01 298.06 C 700.84 298.11 728.67 298.05 756.50 298.41 C 749.70 299.42 742.84 299.21 736.00 299.13 C 722.24 299.51 708.46 298.86 694.71 299.53 C 707.46 300.47 720.25 299.60 733.01 299.98 C 757.68 299.83 782.35 300.31 807.02 300.13 C 811.98 300.40 816.97 300.12 821.77 298.75 C 851.96 298.81 882.15 299.22 912.35 299.56 C 902.57 300.25 892.77 299.96 882.99 300.21 C 867.94 300.51 852.88 299.66 837.84 300.45 C 862.54 301.53 887.30 300.64 912.02 301.19 C 920.59 300.97 929.34 302.11 937.73 299.81 C 957.25 299.90 976.77 300.28 996.29 300.62 C 982.48 301.83 968.62 300.51 954.81 301.43 C 965.51 302.40 976.28 301.91 987.01 302.07 C 995.58 301.90 1004.29 302.98 1012.71 300.81 C 1043.85 301.33 1074.99 301.92 1106.11 302.96 C 1117.72 303.85 1129.60 303.01 1140.99 305.70 C 1136.93 306.69 1132.73 306.73 1128.59 307.09 C 1132.18 306.65 1135.75 306.05 1139.32 305.42 C 1129.54 304.30 1119.74 306.04 1109.97 306.44 C 1114.72 306.83 1119.48 307.26 1124.27 307.35 C 1089.85 309.02 1055.38 309.44 1020.94 310.19 C 930.31 311.67 839.67 312.56 749.03 312.89 C 728.55 313.20 708.06 313.31 687.58 313.15 C 679.51 311.14 671.20 312.38 663.01 312.10 C 610.67 311.79 558.33 311.92 505.99 311.91 C 491.34 312.20 476.68 312.14 462.03 311.99 C 458.71 311.97 455.46 312.60 452.21 313.17 C 429.12 313.30 406.02 313.17 382.93 312.82 C 276.93 312.44 170.93 311.34 64.96 309.09 C 43.31 308.16 21.57 308.35 0.00 306.04 L 0.00 304.96 C 22.92 302.82 45.96 302.78 68.94 301.92 C 152.65 300.13 236.38 299.25 320.11 298.72 C 327.84 301.26 336.03 299.67 343.99 300.17 C 367.98 300.04 391.97 299.99 415.97 299.89 C 425.38 299.79 434.82 300.36 444.21 299.54 C 433.25 298.51 422.17 300.34 411.30 298.30 M 204.72 300.57 C 214.10 301.41 223.53 300.98 232.93 301.04 C 240.08 300.82 247.26 301.43 254.39 300.53 C 237.85 299.68 221.26 299.83 204.72 300.57 M 127.78 301.56 C 134.49 302.38 141.27 302.07 148.01 302.09 C 160.41 301.87 172.83 302.43 185.20 301.49 C 178.84 300.65 172.43 301.23 166.05 301.18 C 153.29 301.30 140.51 300.50 127.78 301.56 Z" />
</g>
<g id="#001a2aff">
<path fill="#001a2a" opacity="1.00" d=" M 320.11 298.72 C 350.50 298.54 380.90 298.33 411.30 298.30 C 422.17 300.34 433.25 298.51 444.21 299.54 C 434.82 300.36 425.38 299.79 415.97 299.89 C 391.97 299.99 367.98 300.04 343.99 300.17 C 336.03 299.67 327.84 301.26 320.11 298.72 Z" />
<path fill="#001a2a" opacity="1.00" d=" M 694.71 299.53 C 708.46 298.86 722.24 299.51 736.00 299.13 C 742.84 299.21 749.70 299.42 756.50 298.41 C 778.26 298.49 800.01 298.53 821.77 298.75 C 816.97 300.12 811.98 300.40 807.02 300.13 C 782.35 300.31 757.68 299.83 733.01 299.98 C 720.25 299.60 707.46 300.47 694.71 299.53 Z" />
</g>
<g id="#011826ff">
<path fill="#011826" opacity="1.00" d=" M 204.72 300.57 C 221.26 299.83 237.85 299.68 254.39 300.53 C 247.26 301.43 240.08 300.82 232.93 301.04 C 223.53 300.98 214.10 301.41 204.72 300.57 Z" />
</g>
<g id="#011f2aff">
<path fill="#011f2a" opacity="1.00" d=" M 837.84 300.45 C 852.88 299.66 867.94 300.51 882.99 300.21 C 892.77 299.96 902.57 300.25 912.35 299.56 C 920.80 299.65 929.27 299.51 937.73 299.81 C 929.34 302.11 920.59 300.97 912.02 301.19 C 887.30 300.64 862.54 301.53 837.84 300.45 Z" />
</g>
<g id="#011d2cff">
<path fill="#011d2c" opacity="1.00" d=" M 127.78 301.56 C 140.51 300.50 153.29 301.30 166.05 301.18 C 172.43 301.23 178.84 300.65 185.20 301.49 C 172.83 302.43 160.41 301.87 148.01 302.09 C 141.27 302.07 134.49 302.38 127.78 301.56 Z" />
</g>
<g id="#011d2dff">
<path fill="#011d2d" opacity="1.00" d=" M 954.81 301.43 C 968.62 300.51 982.48 301.83 996.29 300.62 C 1001.76 300.63 1007.23 300.69 1012.71 300.81 C 1004.29 302.98 995.58 301.90 987.01 302.07 C 976.28 301.91 965.51 302.40 954.81 301.43 Z" />
</g>
<g id="#011a2aff">
<path fill="#011a2a" opacity="1.00" d=" M 1109.97 306.44 C 1119.74 306.04 1129.54 304.30 1139.32 305.42 C 1135.75 306.05 1132.18 306.65 1128.59 307.09 C 1127.14 307.22 1125.70 307.31 1124.27 307.35 C 1119.48 307.26 1114.72 306.83 1109.97 306.44 Z" />
</g>
<g id="#001c27ff">
<path fill="#001c27" opacity="1.00" d=" M 452.21 313.17 C 455.46 312.60 458.71 311.97 462.03 311.99 C 476.68 312.14 491.34 312.20 505.99 311.91 C 558.33 311.92 610.67 311.79 663.01 312.10 C 671.20 312.38 679.51 311.14 687.58 313.15 L 685.46 313.09 C 624.63 312.84 563.80 313.15 502.96 313.00 C 486.19 313.07 469.40 312.77 452.63 313.16 L 452.21 313.17 Z" />
</g>
<g id="#9cbfbbff">
<path fill="#9cbfbb" opacity="1.00" d=" M 452.63 313.16 C 469.40 312.77 486.19 313.07 502.96 313.00 L 503.03 314.00 L 454.85 314.00 L 452.63 313.16 Z" />
</g>
<g id="#98b3b2ff">
<path fill="#98b3b2" opacity="1.00" d=" M 502.96 313.00 C 563.80 313.15 624.63 312.84 685.46 313.09 L 687.71 314.00 L 503.03 314.00 L 502.96 313.00 Z" />
</g>
</svg>
