<?xml version="1.0" standalone="no"?>
<!DOCTYPE svg PUBLIC "-//W3C//DTD SVG 20010904//EN"
 "http://www.w3.org/TR/2001/REC-SVG-20010904/DTD/svg10.dtd">
<svg version="1.0" xmlns="http://www.w3.org/2000/svg"
 width="700.000000pt" height="700.000000pt" viewBox="0 0 700.000000 700.000000"
 preserveAspectRatio="xMidYMid meet">
<metadata>
Created by potrace 1.11, written by Peter Selinger 2001-2013
</metadata>
<g transform="translate(0.000000,700.000000) scale(0.100000,-0.100000)"
fill="#000000" stroke="none">
<path d="M1064 6491 c-28 -9 -64 -25 -78 -35 -27 -17 -87 -94 -93 -118 -1 -7
-6 -31 -11 -53 -4 -22 -8 -1286 -7 -2810 l1 -2770 21 -46 c29 -66 90 -123 156
-147 52 -20 72 -21 493 -18 495 2 478 0 559 81 24 24 52 61 62 82 17 36 18
146 20 2148 1 1161 4 2131 7 2157 11 97 91 193 183 219 39 11 367 13 1788 14
l1740 1 55 25 c70 33 106 70 139 139 l25 55 1 440 0 440 -28 57 c-33 67 -81
111 -152 137 -49 19 -117 19 -2440 20 -2250 0 -2393 -1 -2441 -18z"/>
<path d="M3713 4149 c-86 -16 -172 -95 -198 -184 -23 -74 -21 -873 1 -938 21
-61 76 -122 138 -154 l51 -27 430 -1 c467 -2 495 1 565 53 47 35 57 48 87 110
l25 54 0 439 -1 439 -24 52 c-30 65 -78 115 -137 142 -43 19 -63 20 -470 21
-234 1 -444 -2 -467 -6z"/>
</g>
</svg>
