<?xml version="1.0" encoding="UTF-8" standalone="no"?>
<!-- Created with Inkscape (http://www.inkscape.org/) -->

<svg
   xmlns:dc="http://purl.org/dc/elements/1.1/"
   xmlns:cc="http://creativecommons.org/ns#"
   xmlns:rdf="http://www.w3.org/1999/02/22-rdf-syntax-ns#"
   xmlns:svg="http://www.w3.org/2000/svg"
   xmlns="http://www.w3.org/2000/svg"
   xmlns:sodipodi="http://sodipodi.sourceforge.net/DTD/sodipodi-0.dtd"
   xmlns:inkscape="http://www.inkscape.org/namespaces/inkscape"
   width="257.57855"
   height="66.104149"
   viewBox="0 0 68.150992 17.490056"
   version="1.1"
   id="svg7973"
   inkscape:version="0.92.0 r15299"
   sodipodi:docname="total.svg">
  <defs
     id="defs7967">
    <clipPath
       id="clipPath150"
       clipPathUnits="userSpaceOnUse">
      <path
         inkscape:connector-curvature="0"
         id="path148"
         d="m 306.901,693.985 h 191.683 v 48.077 H 306.901 v -48.077" />
    </clipPath>
    <clipPath
       id="clipPath130"
       clipPathUnits="userSpaceOnUse">
      <path
         inkscape:connector-curvature="0"
         id="path128"
         d="m 306.901,693.985 h 191.683 v 48.077 H 306.901 v -48.077" />
    </clipPath>
    <clipPath
       id="clipPath106"
       clipPathUnits="userSpaceOnUse">
      <path
         inkscape:connector-curvature="0"
         id="path104"
         d="m 306.901,693.985 h 191.683 v 48.077 H 306.901 v -48.077" />
    </clipPath>
  </defs>
  <sodipodi:namedview
     id="base"
     pagecolor="#ffffff"
     bordercolor="#666666"
     borderopacity="1.0"
     inkscape:pageopacity="0.0"
     inkscape:pageshadow="2"
     inkscape:zoom="2.0221076"
     inkscape:cx="198.30794"
     inkscape:cy="-0.69051875"
     inkscape:document-units="mm"
     inkscape:current-layer="layer1"
     showgrid="false"
     fit-margin-top="0"
     fit-margin-left="0"
     fit-margin-right="0"
     fit-margin-bottom="0"
     units="px"
     inkscape:window-width="1280"
     inkscape:window-height="744"
     inkscape:window-x="-4"
     inkscape:window-y="-4"
     inkscape:window-maximized="1" />
  <metadata
     id="metadata7970">
    <rdf:RDF>
      <cc:Work
         rdf:about="">
        <dc:format>image/svg+xml</dc:format>
        <dc:type
           rdf:resource="http://purl.org/dc/dcmitype/StillImage" />
        <dc:title></dc:title>
      </cc:Work>
    </rdf:RDF>
  </metadata>
  <g
     inkscape:label="Layer 1"
     inkscape:groupmode="layer"
     id="layer1"
     transform="translate(-53.879747,-176.86524)">
    <g
       id="g8078"
       transform="translate(0.26458446,-0.26458041)">
      <path
         d="m 87.708635,183.66044 c -3.161947,0 -4.973108,1.35749 -4.973108,3.72427 0,2.3421 1.811161,3.69923 4.973108,3.69923 3.158067,0 4.965347,-1.35713 4.965347,-3.69923 0,-2.36678 -1.80728,-3.72427 -4.965347,-3.72427 m 0,5.70442 c -1.729317,0 -2.603147,-0.66146 -2.603147,-1.98015 0,-1.33279 0.87383,-2.00025 2.603147,-2.00025 1.725083,0 2.60738,0.66746 2.60738,2.00025 0,1.31869 -0.882297,1.98015 -2.60738,1.98015"
         style="fill:#ed1a3a;fill-opacity:1;fill-rule:nonzero;stroke:none;stroke-width:0.35277778"
         id="path94"
         inkscape:connector-curvature="0" />
      <path
         d="m 101.94674,183.84177 h -8.625769 v 1.58327 h 2.994377 v 4.91525 c 0,0.46849 0.716139,0.63782 1.321506,0.63782 0.603956,0 1.320094,-0.16087 1.320094,-0.63782 v -4.91525 h 2.989792"
         style="fill:#ed1a3a;fill-opacity:1;fill-rule:nonzero;stroke:none;stroke-width:0.35277778"
         id="path98"
         inkscape:connector-curvature="0" />
      <path
         d="m 117.87925,189.26714 c -0.73201,0 -1.23437,-0.12241 -1.50954,-0.3496 -0.3563,-0.30304 -0.39758,-0.75318 -0.4071,-1.09467 v -3.46922 c 0,-0.46284 -0.6798,-0.61348 -1.25907,-0.61348 -0.58843,0 -1.27176,0.15064 -1.27176,0.60572 v 3.36021 c 0,1.28199 0.41169,2.18158 1.23261,2.67405 1.01247,0.58738 2.85362,0.56621 4.62385,0.54399 h 2.21333 v -1.657"
         style="fill:#ed1a3a;fill-opacity:1;fill-rule:nonzero;stroke:none;stroke-width:0.35277778"
         id="path110"
         inkscape:connector-curvature="0" />
      <path
         d="M 83.831256,181.69546 H 73.373512 v 1.74554 h 3.606094 v 5.30014 c 0,1.25236 1.053747,2.10396 2.841272,2.25178 V 183.441 h 4.010378"
         style="fill:#ed1a3a;fill-opacity:1;fill-rule:nonzero;stroke:none;stroke-width:0.35277778"
         id="path114"
         inkscape:connector-curvature="0" />
      <path
         d="m 107.77287,183.92714 c -0.22296,-0.1524 -0.45685,-0.18697 -0.762,-0.1965 -0.31291,0.01 -0.55633,0.0441 -0.77258,0.1965 -0.68333,0.49177 -3.98604,3.80965 -4.56848,6.7116 l -0.0663,0.28681 h 2.3368 l 0.0427,-0.20814 c 0.0981,-0.40958 0.248,-0.85549 0.45297,-1.3141 h 5.13714 c 0.20462,0.45861 0.35984,0.90452 0.44556,1.3141 l 0.0497,0.20814 h 2.34069 l -0.0624,-0.28681 c -0.58949,-2.90195 -3.88937,-6.21983 -4.57376,-6.7116 m -2.51248,3.98321 c 0.49177,-0.74577 1.08655,-1.47284 1.75048,-2.12125 0.65264,0.64841 1.24425,1.37548 1.73814,2.12125"
         style="fill:#ed1a3a;fill-opacity:1;fill-rule:nonzero;stroke:none;stroke-width:0.35277778"
         id="path118"
         inkscape:connector-curvature="0" />
      <path
         d="m 69.398411,186.8492 c -0.01058,-0.0367 -0.02469,-0.0713 -0.03845,-0.10548 -1.213203,1.38324 -4.191705,2.27965 -6.871405,2.08068 -1.578328,-0.11747 -4.501445,-0.93345 -5.976408,-1.83726 1.558925,1.49225 3.381022,2.62678 5.447594,3.23814 2.453217,0.72955 5.068711,0.67981 6.543322,-0.0878 1.082675,-0.72848 1.327856,-2.03129 0.89535,-3.28824"
         style="fill:#f8981d;fill-opacity:1;fill-rule:nonzero;stroke:none;stroke-width:0.35277778"
         id="path122"
         inkscape:connector-curvature="0" />
      <path
         d="m 66.024794,178.14229 c 4.830233,2.85044 1.955447,11.82194 -1.888419,14.70448 -3.576461,2.68076 -7.382581,1.44463 -8.207375,-1.02764 0.72143,1.07103 2.151239,1.46262 3.421591,1.0347 3.531306,-1.41393 5.34917,-7.80909 5.584472,-10.02912 0.156987,-1.9117 -0.09207,-3.19581 -0.756002,-4.00403 -0.761295,-0.80292 -1.925109,-1.19345 -3.631495,-0.65828 1.173339,-0.96238 3.68547,-1.07668 5.477228,-0.0201"
         style="fill:#034ea2;fill-opacity:1;fill-rule:nonzero;stroke:none;stroke-width:0.35277778"
         id="path134"
         inkscape:connector-curvature="0" />
      <path
         d="m 68.727428,190.01114 0.0575,-0.0367 0.0095,-0.007 c 0.09948,-0.0653 0.197555,-0.13759 0.289278,-0.2219 0.04198,-0.0377 0.08608,-0.0794 0.128058,-0.12347 1.878894,-1.90606 2.277533,-7.2069 -2.354086,-9.71797 -1.647472,-0.89465 -5.480403,-2.14595 -9.300986,-0.2152 -1.265414,0.63747 -2.568928,1.96321 -3.272014,3.76449 0.518583,-0.85513 1.415345,-1.4351 3.182056,-1.68416 1.762477,-0.2226 4.193822,0.0515 6.569427,0.89077 1.533525,0.56444 2.772481,1.26259 3.742972,2.05281 0.799042,0.68474 1.313745,1.33773 1.580445,2.03059 0.01376,0.0349 0.02787,0.0688 0.0388,0.10583 0.432506,1.2566 0.187325,2.55905 -0.894997,3.28895 0.05115,-0.0272 0.09913,-0.0529 0.153811,-0.0861 l 0.02364,-0.0131 0.04657,-0.0279"
         style="fill:#ed1a3a;fill-opacity:1;fill-rule:nonzero;stroke:none;stroke-width:0.35277778"
         id="path138"
         inkscape:connector-curvature="0" />
      <path
         d="m 54.882312,186.50312 c 0.0889,0.14076 0.289983,0.381 0.4191,0.53234 0.930628,-2.18263 6.015919,-3.6001 7.515578,-3.5821 -3.369734,-1.0848 -6.672792,-0.56727 -7.999236,0.58349 -0.4826,0.53728 -0.632884,1.34303 0.06456,2.46627"
         style="fill:#f8981d;fill-opacity:1;fill-rule:nonzero;stroke:none;stroke-width:0.35277778"
         id="path142"
         inkscape:connector-curvature="0" />
      <path
         d="m 64.800302,191.45224 c -2.708628,-0.15064 -6.651272,-1.1938 -9.445272,-4.35681 l -0.05327,-0.0603 c -0.129823,-0.15099 -0.330553,-0.39123 -0.419453,-0.53199 -0.697795,-1.12254 -0.547159,-1.92899 -0.06456,-2.46556 h -0.0014 c -0.08749,0.0783 -0.19438,0.17921 -0.315383,0.33549 -0.716492,0.92392 -0.801864,2.42393 -0.314678,4.0139 1.064684,3.45299 5.72135,5.5305 9.499953,4.96006 2.414764,-0.36407 3.92818,-1.72261 4.557889,-2.27753 -1.368425,0.38946 -2.378428,0.44344 -3.443817,0.38276"
         style="fill:#4395d1;fill-opacity:1;fill-rule:nonzero;stroke:none;stroke-width:0.35277778"
         id="path154"
         inkscape:connector-curvature="0" />
    </g>
  </g>
</svg>
